<svg width="397" height="400" viewBox="0 0 397 400" fill="none" xmlns="http://www.w3.org/2000/svg">
<path fill-rule="evenodd" clip-rule="evenodd" d="M289.09 246.862C283.273 249.136 276.544 252.551 275.92 258.765C283.822 252.686 293.583 249.058 303.538 248.5C296.661 257.165 287.977 264.389 278.205 269.574C269.43 274.23 258.32 279.197 257.567 289.102C266.992 277.88 281.482 271.086 296.136 271.018C286.761 284.75 271.727 294.49 255.363 297.434C255.924 301.654 274.068 310.692 279.353 312.431C283.117 328.6 284.747 349.569 288.511 365.738C289.437 369.717 290.253 374.289 287.816 377.568C285.399 380.821 280.834 381.381 276.792 381.668C260.859 382.801 239.06 383.934 223.127 385.066C221.22 376.424 219.312 367.782 217.404 359.139C190.529 361.635 75.3151 388.037 54.1715 374.186C-27.4494 320.717 76.6315 302.503 78.8682 237.405C79.3811 222.479 34.503 196.387 35.2156 181.135C35.6808 171.175 37.2226 161.447 42.1501 152.895C47.0777 144.343 54.8858 137.756 63.3723 132.717C51.6884 129.713 42.8384 118.067 43.0752 106.005C43.312 93.944 52.6122 82.6535 64.405 80.1111C58.845 73.4855 50.09 70.4486 43.6951 64.6246C36.2455 57.8401 32.502 46.896 35.2156 37.1922C37.9292 27.4885 47.4835 19.8537 57.5503 20.2839C65.8193 20.6373 73.0962 25.8673 78.8682 31.799C87.8199 40.9985 94.4775 52.4136 98.0769 64.7346C100.476 72.947 109.269 77.1249 116.694 81.3749C124.119 85.6249 131.83 93.028 129.738 101.324C126.973 89.9719 168.081 103.494 205.363 106.804C210.313 107.243 215.64 107.883 219.3 111.245C224.558 116.077 232.453 117.84 239.267 115.703C241.435 121.077 243.03 127.114 241.187 132.608C239.344 138.103 232.816 142.296 227.598 139.776C228.96 146.784 230.322 153.791 231.684 160.799C245.026 160.959 258.367 161.232 271.704 161.616C278.773 161.82 286.161 162.142 292.305 165.644C298.449 169.146 306.672 164.184 312.742 151.437C308.814 172.237 313.469 180.548 321.496 182.808C321.513 182.651 322.137 182.726 322.155 182.568C324.545 162.014 338.492 143.764 357.904 136.544C356.187 140.499 343.905 148.312 335.377 158.289C327.046 168.034 323.059 181.082 322.646 183.424C335.873 179.956 340.283 189.811 362.725 181.135C352.47 193.464 332.709 196.5 319.226 187.817C312.866 194.911 313.221 202.766 308.715 211.161C316.37 201.648 326.533 210.082 318.47 216.248C322.75 216.659 327.377 217.223 330.481 220.197C333.585 223.171 333.663 229.432 329.659 230.998C316.136 236.286 302.613 241.574 289.09 246.862Z" fill="#A4FB89"/>
<path fill-rule="evenodd" clip-rule="evenodd" d="M267.14 199.983C267.63 199.053 268.161 198.077 269.062 197.535C269.963 196.992 271.345 197.104 271.83 198.037C272.346 199.03 271.578 200.227 270.676 200.89C269.775 201.553 268.666 202.02 268.08 202.973C271.247 205.06 274.413 207.146 277.579 209.233C280.059 210.867 282.866 213.201 282.358 216.127C282.06 217.843 280.606 219.177 278.987 219.817C277.367 220.457 275.586 220.524 273.846 220.574C262.147 220.911 250.437 220.852 238.742 220.396C237.93 220.365 237.025 220.289 236.485 219.683C236.066 219.214 235.98 218.544 235.912 217.919C235.239 211.694 234.566 205.469 233.893 199.244C233.868 199.015 233.844 198.774 233.926 198.558C234.273 197.65 235.632 198.209 236.392 198.816C241.776 203.113 250.383 202.608 255.227 197.711C256.397 196.528 258.39 196.681 259.894 197.394C261.398 198.108 262.656 199.268 264.164 199.972C264.003 199.099 264.772 198.179 265.659 198.183C266.546 198.186 267.308 199.113 267.14 199.983Z" fill="white"/>
<path fill-rule="evenodd" clip-rule="evenodd" d="M78.7482 131.282C78.7482 131.282 77.4414 115.629 80.7308 110.597C84.0201 105.565 96.5499 104.05 96.5499 104.05C96.5499 104.05 130.892 103.602 149.447 104.311C168.002 105.02 205.111 108.2 205.111 108.2C205.111 108.2 209.932 109.252 212.1 110.597C214.268 111.943 217.291 115.76 217.291 115.76C217.291 115.76 223.87 116.719 227.143 116.85C230.416 116.98 233.414 116.403 233.414 116.403C233.414 116.403 237.585 128.567 234.637 134.365C231.688 140.163 221.787 139.264 221.787 139.264L225.292 160.963C225.292 160.963 221.125 162.932 218.848 165.401C216.571 167.87 215.656 171.411 215.656 171.411L222.425 237.405C222.425 237.405 224.416 240.836 228.692 242.138C232.969 243.441 242.605 243.552 242.605 243.552C242.605 243.552 242.261 250.207 242.605 253.07C242.949 255.934 243.255 257.503 243.255 257.503L250.509 309.438C250.509 309.438 243.458 310.72 236.481 312.413C229.504 314.106 215.656 317.893 215.656 317.893C215.656 317.893 210.775 320.119 210.143 323.712C209.51 327.306 212.1 338.104 212.1 338.104L134.362 344.03C134.362 344.03 126.798 344.172 124.196 342.533C121.594 340.893 120.88 335.535 120.88 335.535L110.366 240.964C110.366 240.964 93.5633 241.375 88.6559 238.573C83.7486 235.771 83.1551 225.428 83.1551 225.428C83.1551 225.428 83.9704 219.565 83.1551 215.496C82.8831 214.138 79.3293 199.422 78.1355 185.419C77.4599 177.495 86.7837 171.411 86.7837 171.411L78.7482 131.282Z" fill="white"/>
<path fill-rule="evenodd" clip-rule="evenodd" d="M133.6 109.512C132.996 110.364 133.502 111.635 134.375 112.208C135.249 112.781 136.35 112.846 137.393 112.893C148.734 113.403 160.074 113.914 171.415 114.424C172.52 114.474 173.744 114.485 174.581 113.762C175.418 113.039 175.308 111.315 174.215 111.141C161.605 109.136 148.808 108.303 136.044 108.657C135.148 108.682 134.119 108.78 133.6 109.512" fill="#E7EAEE"/>
<path fill-rule="evenodd" clip-rule="evenodd" d="M184.057 190.795L181.11 176.965C181.11 176.965 180.972 179.817 179.412 180.977C177.851 182.137 174.767 181.681 174.767 181.681C174.767 181.681 174.278 172.023 176.449 169.083C178.621 166.142 180.76 168.919 184.885 167.978C189.006 167.039 188.152 163.943 192.941 165.321C197.73 166.7 201.268 176.949 201.268 176.949C201.268 176.949 197.513 178.207 195.916 177.884C194.318 177.561 194.708 175.623 194.708 175.623C194.708 175.623 193.575 175.141 193.864 178.539C194.004 180.19 195.254 182.672 195.916 185.92C196.162 187.129 195.916 189.846 195.916 189.846C195.916 189.846 191.654 190.281 187.972 191.069C184.29 191.857 184.057 190.795 184.057 190.795Z" fill="#E7EAEE"/>
<path fill-rule="evenodd" clip-rule="evenodd" d="M79.4296 156.394C78.0112 155.63 76.8579 154.465 75.7274 153.318C72.8112 150.358 69.8586 147.35 67.8352 143.72C67.6426 143.375 67.4532 142.978 67.5642 142.598C67.6753 142.219 68.2551 142.003 68.4719 142.334C71.9889 147.703 76.4303 152.465 81.5418 156.347C81.0822 156.965 80.1077 156.759 79.4296 156.394Z" fill="#00160A"/>
<path fill-rule="evenodd" clip-rule="evenodd" d="M83.6784 88.4378C84.5163 87.5746 84.9631 86.4132 85.349 85.2738C86.5521 81.7206 87.3719 78.0378 87.7897 74.3098C87.865 73.6383 87.9882 72.8651 88.5709 72.5229C89.2261 75.7195 88.4145 79.0137 87.6076 82.1753C86.8982 84.9548 86.1126 87.8734 84.1006 89.918C83.897 90.1249 83.637 90.3357 83.3508 90.2879C82.9649 90.2233 82.8102 89.7104 82.9479 89.3442C83.0857 88.978 83.4059 88.7186 83.6784 88.4378L83.6784 88.4378Z" fill="#00160A"/>
<path fill-rule="evenodd" clip-rule="evenodd" d="M285.919 116.318C286.317 116.212 286.724 116.526 286.897 116.901C287.071 117.275 287.084 117.7 287.161 118.106C287.464 119.69 288.892 120.99 290.498 121.143C290.698 121.608 290.255 122.074 289.905 122.44C289.109 123.274 288.606 124.383 288.503 125.531C288.437 126.277 288.28 127.314 287.532 127.304C286.931 127.296 286.667 126.569 286.45 126.008C285.921 124.638 284.728 123.542 283.318 123.131C283.022 123.045 282.897 122.667 282.979 122.369C283.06 122.072 283.286 121.839 283.501 121.618C284.427 120.668 285.368 119.542 285.358 118.215C285.352 117.497 285.225 116.504 285.919 116.318Z" fill="#FFB61D"/>
<path fill-rule="evenodd" clip-rule="evenodd" d="M314.003 241.014C312.759 242.292 312.318 244.293 312.91 245.976C312.255 246.269 311.764 245.365 311.44 244.725C310.953 243.763 310.033 243.031 308.986 242.774C310.502 241.818 311.446 240.018 311.37 238.227C311.98 237.83 312.662 238.658 312.837 239.364C313.012 240.07 313.276 240.989 314.003 241.014Z" fill="#E7EAEE"/>
<path fill-rule="evenodd" clip-rule="evenodd" d="M303.384 243.411C304.106 244.556 305.132 245.507 306.328 246.14C306.758 246.367 306.368 247 306.013 247.332C305.119 248.168 304.553 249.345 304.459 250.566C303.677 249.782 302.894 248.998 302.112 248.214C301.8 247.902 301.471 247.416 301.74 247.066C302.56 245.996 303.128 244.734 303.384 243.411Z" fill="#E7EAEE"/>
<path fill-rule="evenodd" clip-rule="evenodd" d="M251.146 105.569C251.858 101.037 253.578 96.5823 256.6 93.1306C259.623 89.6789 264.035 87.3227 268.622 87.3264C273.21 87.3301 277.844 89.9284 279.75 94.1014C280.737 96.2606 280.979 98.6912 280.912 101.064C280.784 105.577 279.572 110.056 277.406 114.017C275.452 117.589 272.644 120.802 268.999 122.614C265.353 124.426 260.81 124.669 257.266 122.666C254.459 121.08 252.496 118.233 251.561 115.148C250.625 112.063 250.646 108.753 251.146 105.569M279.187 102.139C279.27 99.3291 278.806 96.4272 277.328 94.0355C276.43 92.5815 275.171 91.3517 273.697 90.487C268.942 87.6986 262.471 89.1966 258.522 93.0418C254.573 96.8871 252.861 102.57 252.684 108.079C252.59 111.018 252.906 114.031 254.156 116.693C255.405 119.354 257.691 121.631 260.539 122.362C264.265 123.319 268.197 121.517 271.119 119.015C275.994 114.839 278.998 108.555 279.187 102.139Z" fill="#FFB61D"/>
<path fill-rule="evenodd" clip-rule="evenodd" d="M298.094 102.422C297.336 103.414 296.542 104.716 297.125 105.821C297.333 106.216 296.794 106.676 296.365 106.552C295.936 106.427 295.692 105.974 295.578 105.542C295.464 105.11 295.427 104.647 295.198 104.263C294.968 103.88 294.448 103.613 294.069 103.849C293.529 103.785 293.474 102.973 293.787 102.529C294.101 102.085 294.616 101.78 294.809 101.272C294.962 100.87 294.88 100.419 294.952 99.9945C295.024 99.5705 295.385 99.1177 295.802 99.226C295.787 99.9713 295.874 100.745 296.252 101.387C296.63 102.03 297.354 102.51 298.094 102.422Z" fill="#FFB61D"/>
<path fill-rule="evenodd" clip-rule="evenodd" d="M230.229 100.953C230.822 100.264 231.567 99.6734 232.441 99.4223C233.316 99.1711 234.33 99.3035 235.013 99.9046C235.755 100.559 235.989 101.651 235.83 102.628C235.672 103.605 235.179 104.493 234.661 105.336C233.988 106.43 233.258 107.489 232.473 108.506C232.228 108.823 231.96 109.151 231.584 109.292C231.089 109.479 230.536 109.297 230.047 109.093C228.33 108.375 226.733 107.368 225.346 106.127C224.075 104.99 222.903 103.324 223.418 101.699C223.746 100.664 224.748 99.9149 225.822 99.755C226.896 99.5951 228.01 99.9737 228.864 100.644C229.273 100.965 229.89 101.347 230.229 100.953M224.803 101.555C223.992 102.671 224.872 104.234 225.894 105.161C227.17 106.317 228.684 107.171 230.184 108.015C230.377 108.124 230.592 108.236 230.808 108.189C231.001 108.148 231.144 107.99 231.271 107.839C232.287 106.635 233.198 105.342 233.988 103.979C234.596 102.93 235.042 101.39 234.063 100.676C233.288 100.111 232.158 100.566 231.501 101.265C230.844 101.963 230.43 102.875 229.712 103.51C229.151 102.627 228.555 101.708 227.646 101.19C226.737 100.671 225.418 100.708 224.803 101.555H224.803Z" fill="#FFB61D"/>
<path fill-rule="evenodd" clip-rule="evenodd" d="M218.611 70.4549C220.471 69.005 222.539 67.8221 224.731 66.9539C226.076 66.4217 227.61 66.012 228.938 66.582C231.067 67.4953 231.481 70.552 230.361 72.5796C229.241 74.6071 227.117 75.8363 225.095 76.9658C221.129 79.1809 217.163 81.396 213.198 83.6111C213.979 82.0524 213.097 80.2227 212.376 78.6356C210.751 75.0611 209.9 71.1369 209.899 67.2103C209.899 65.97 209.992 64.6923 210.536 63.5776C211.08 62.4629 212.166 61.5385 213.406 61.5093C215.39 61.4626 216.71 63.5291 217.379 65.3977C217.965 67.034 218.379 68.7322 218.611 70.4549ZM227.016 67.613C223.809 68.2647 220.821 69.9521 218.606 72.3619C218.388 72.5993 217.964 72.4947 217.765 72.2412C217.566 71.9878 217.528 71.6479 217.49 71.3278C217.24 69.2079 216.685 67.1242 215.849 65.1604C215.383 64.0656 214.602 62.8566 213.412 62.8373C212.53 62.823 211.763 63.5292 211.437 64.349C211.112 65.1688 211.14 66.0814 211.202 66.9612C211.55 71.8677 212.841 76.7056 214.984 81.1332C218.492 79.1672 222 77.2012 225.508 75.2352C226.603 74.6218 227.717 73.9932 228.568 73.0712C229.419 72.1492 229.979 70.868 229.732 69.6379C229.485 68.4077 228.246 67.3632 227.016 67.613Z" fill="#FFB61D"/>
<path fill-rule="evenodd" clip-rule="evenodd" d="M194.063 313.475C204.303 312.308 214.608 311.721 224.914 311.717C226.805 311.716 228.449 310.247 229.218 308.52C229.986 306.792 230.047 304.844 230.048 302.953C230.052 295.929 229.391 288.924 228.731 281.931C228.464 279.095 228.196 276.259 227.929 273.423C227.766 271.702 227.594 269.943 226.869 268.374C225.612 265.65 222.827 263.88 219.927 263.117C217.026 262.354 213.977 262.459 210.979 262.568C201.027 262.933 191.075 263.297 181.123 263.662C186.86 261.558 193.108 261.459 199.218 261.384C203.902 261.327 208.587 261.27 213.271 261.213C218.059 261.154 223.53 261.394 226.584 265.082C228.557 267.464 228.993 270.727 229.323 273.802C230.361 283.487 231.122 293.201 231.603 302.929C231.763 306.153 231.634 309.942 229.009 311.82C227.541 312.87 225.636 313.028 223.835 313.15C212.868 313.893 201.901 314.636 190.933 315.379C188.358 315.553 185.644 315.702 183.328 314.564C182.523 314.168 181.696 313.274 182.128 312.489C185.694 314.43 190.03 313.935 194.063 313.475Z" fill="#00160A"/>
<path fill-rule="evenodd" clip-rule="evenodd" d="M150.688 158.125C150.893 158.432 150.94 158.815 150.981 159.182C151.077 160.036 151.173 160.891 151.269 161.746C151.383 162.76 151.407 163.987 150.566 164.565C150.118 164.874 149.54 164.899 148.996 164.914C137.555 165.223 126.115 165.532 114.674 165.841C113.938 165.861 113.086 165.829 112.635 165.247C112.352 164.882 112.308 164.391 112.282 163.929C112.199 162.48 112.175 161.027 112.212 159.576C112.218 159.355 112.231 159.118 112.368 158.944C112.532 158.736 112.822 158.686 113.085 158.65C124.906 157.049 136.886 156.626 148.79 157.39C149.493 157.435 150.296 157.54 150.688 158.125M150.218 163.685C149.056 163.057 150.227 161.218 149.804 159.966C149.441 158.892 148.062 158.637 146.929 158.573C136.142 157.959 125.298 158.342 114.581 159.716C114.186 159.766 113.748 159.842 113.509 160.16C113.272 160.474 113.315 160.91 113.369 161.299C113.452 161.902 113.535 162.505 113.619 163.107C113.685 163.583 113.785 164.115 114.184 164.381C114.473 164.574 114.846 164.572 115.194 164.564C126.869 164.271 138.543 163.978 150.218 163.685Z" fill="#00160A"/>
<path fill-rule="evenodd" clip-rule="evenodd" d="M172.21 178.379C172.264 177.11 172.318 175.84 172.373 174.57C172.479 172.094 172.609 169.525 173.76 167.33C174.911 165.135 177.395 163.43 179.807 164C181.315 164.357 182.706 165.543 184.224 165.224C185.545 164.947 186.355 163.641 187.471 162.882C190.132 161.071 193.841 162.753 196.041 165.101C198.412 167.632 199.954 170.929 200.376 174.371C200.412 174.663 200.43 174.991 200.242 175.218C200.086 175.405 199.831 175.47 199.593 175.525C198.677 175.735 197.761 175.944 196.845 176.154C196.065 176.333 195.256 176.512 194.473 176.35C193.689 176.188 192.937 175.584 192.874 174.786C192.64 179.244 195.978 183.502 195.048 187.868C194.702 187.679 194.356 187.49 194.01 187.301C194.826 182.922 190.924 178.684 191.739 174.306C191.847 173.726 192.079 173.11 192.597 172.828C193.115 172.547 193.935 172.867 193.914 173.456C193.882 174.399 194.9 175.105 195.845 175.096C196.789 175.088 197.647 174.582 198.454 174.091C198.741 173.916 198.663 173.484 198.543 173.17C197.65 170.828 196.477 168.593 195.055 166.529C194.095 165.134 192.937 163.755 191.341 163.188C189.744 162.621 187.636 163.2 187.048 164.788C186.36 166.648 183.761 166.773 181.852 166.237C179.943 165.701 177.801 164.864 176.098 165.879C174.674 166.728 174.197 168.537 173.93 170.173C173.472 172.981 173.261 175.828 173.299 178.672C173.377 179.106 173.93 179.246 174.371 179.235C176.693 179.175 178.849 177.343 179.284 175.062C179.909 175.781 180.133 176.756 180.335 177.688C181.036 180.915 181.737 184.142 182.438 187.37C182.653 188.363 182.402 189.89 181.401 189.709C180.948 186.189 180.277 182.698 179.392 179.261C177.72 179.641 176.047 180.021 174.375 180.402C173.862 180.518 173.288 180.626 172.839 180.352C172.219 179.973 172.179 179.105 172.21 178.379Z" fill="#00160A"/>
<path fill-rule="evenodd" clip-rule="evenodd" d="M221.132 266.028C221.985 266.953 220.659 268.66 221.441 269.646C221.847 270.157 221.558 270.969 221.02 271.34C220.483 271.71 219.795 271.76 219.143 271.798C207.939 272.449 196.735 273.1 185.532 273.751C184.77 273.795 183.86 273.769 183.444 273.13C183.262 272.851 183.218 272.507 183.179 272.176C183.077 271.315 182.974 270.454 182.872 269.593C182.84 269.323 182.811 269.034 182.938 268.793C183.148 268.396 183.668 268.31 184.115 268.271C195.89 267.231 207.679 266.353 219.477 265.635C220.063 265.6 220.734 265.596 221.132 266.028ZM219.846 267.482C219.81 267.27 219.762 267.037 219.592 266.905C219.423 266.772 219.186 266.782 218.972 266.797C208.525 267.559 198.078 268.32 187.631 269.082C186.787 269.143 185.911 269.214 185.173 269.63C184.436 270.046 183.88 270.913 184.101 271.73C184.17 271.983 184.316 272.223 184.54 272.359C184.815 272.526 185.158 272.514 185.48 272.496C196.509 271.898 207.539 271.3 218.568 270.702C219.88 270.63 220.068 268.776 219.846 267.482Z" fill="#00160A"/>
<path fill-rule="evenodd" clip-rule="evenodd" d="M229.972 255.996C231.955 261.214 232.587 266.832 233.203 272.38C234.634 285.27 236.065 298.16 237.497 311.049C236.432 311.137 235.941 309.77 235.809 308.71C233.64 291.366 232.942 273.799 229.275 256.71C229.507 256.472 229.739 256.234 229.972 255.996Z" fill="#00160A"/>
<path fill-rule="evenodd" clip-rule="evenodd" d="M166.004 166.207C165.696 166.075 165.702 165.594 165.939 165.356C166.175 165.118 166.534 165.061 166.866 165.018C169.358 164.702 171.87 164.548 174.381 164.557C174.247 165.629 172.864 165.942 171.785 165.992C169.973 166.075 168.161 166.159 166.349 166.243C166.233 166.248 166.112 166.253 166.004 166.207L166.004 166.207Z" fill="#00160A"/>
<path fill-rule="evenodd" clip-rule="evenodd" d="M180.059 297.291C179.852 293.454 179.645 289.618 179.438 285.781C178.881 275.455 178.307 265.023 175.432 255.089C175.065 253.821 174.646 252.534 173.833 251.493C171.798 248.889 168.03 248.59 164.725 248.59C151.982 248.591 139.239 249.802 126.724 252.204C125.452 252.448 124.13 252.728 123.115 253.532C121.503 254.811 121.078 257.058 120.928 259.11C120.654 262.856 120.925 266.642 121.729 270.312C121.269 270.235 120.809 270.158 120.349 270.082C118.663 266.569 117.894 262.621 118.141 258.733C118.248 257.044 118.558 255.325 119.428 253.874C121.592 250.265 126.356 249.399 130.54 248.951C141.156 247.814 151.811 247.048 162.481 246.655C166.775 246.497 171.628 246.618 174.575 249.745C176.058 251.318 176.808 253.432 177.398 255.512C179.445 262.737 180.01 270.287 180.565 277.776C181.107 285.093 181.649 292.41 182.19 299.727C182.318 301.447 182.444 303.193 182.096 304.883C180.962 310.386 175.101 313.734 169.521 314.4C163.941 315.065 158.324 313.79 152.706 313.697C145.15 313.571 137.549 315.58 130.098 314.325C127.951 313.963 125.669 313.203 124.489 311.374C123.671 310.105 123.523 308.532 123.398 307.028C122.514 296.415 121.63 285.802 120.747 275.189C120.688 274.478 121.216 273.419 121.762 273.878C122.736 284.1 123.711 294.323 124.685 304.546C124.817 305.93 124.96 307.354 125.604 308.586C126.537 310.375 128.422 311.512 130.375 312.019C132.328 312.525 134.376 312.484 136.394 312.458C144.931 312.346 153.473 312.559 161.994 313.095C164.843 313.274 167.724 313.488 170.539 313.01C173.354 312.532 176.147 311.278 177.894 309.019C180.383 305.803 180.278 301.352 180.059 297.291Z" fill="#00160A"/>
<path fill-rule="evenodd" clip-rule="evenodd" d="M165.571 162.058C166.366 161.438 165.698 160.168 165.854 159.172C166.076 157.764 167.828 157.28 169.245 157.117C178.341 156.065 187.501 155.568 196.658 155.629C197.42 155.634 198.32 155.719 198.704 156.377C199.165 157.168 198.736 158.547 199.608 158.824C200.017 158.954 200.542 158.713 200.852 159.01C201.365 159.502 200.41 160.165 199.702 160.229C188.987 161.19 178.248 161.894 167.498 162.339C166.841 162.366 166.143 162.384 165.571 162.058M197.58 157.62C197.329 156.991 196.492 156.899 195.815 156.909C187.182 157.04 178.553 157.467 169.949 158.188C168.941 158.273 167.75 158.483 167.329 159.404C167.127 159.927 167.513 160.53 168.021 160.767C168.53 161.005 169.117 160.974 169.677 160.939C178.272 160.393 186.867 159.848 195.461 159.303C195.99 159.269 196.542 159.229 196.998 158.959C197.454 158.689 197.776 158.113 197.58 157.62Z" fill="#00160A"/>
<path fill-rule="evenodd" clip-rule="evenodd" d="M209.165 283.74C210.49 284.793 209.923 287.1 211.076 288.34C211.612 288.917 212.415 289.142 213.171 289.363C213.656 289.505 214.257 289.861 214.103 290.343C213.945 290.837 213.226 290.757 212.744 290.568C211.168 289.951 209.392 288.925 209.305 287.236C209.242 286.002 208.875 284.786 208.247 283.723C208.424 283.423 208.892 283.524 209.165 283.74V283.74Z" fill="#00160A"/>
<path fill-rule="evenodd" clip-rule="evenodd" d="M215.434 301.211C215.002 295.651 214.57 290.092 214.139 284.532C214.075 283.715 214.003 282.867 213.598 282.154C213.193 281.442 212.355 280.905 211.563 281.117C207.982 282.078 204.262 282.523 200.555 282.435C197.314 282.359 193.997 281.885 190.879 282.773C190.937 284.317 190.995 285.861 191.053 287.405C191.07 287.856 191.095 288.335 191.352 288.706C192.071 289.746 193.856 288.953 194.262 287.755C194.667 286.557 194.301 285.247 194.371 283.983C194.383 283.76 194.428 283.505 194.618 283.387C195.023 283.135 195.411 283.736 195.515 284.201C195.813 285.533 196.11 286.928 195.759 288.247C195.408 289.567 194.184 290.762 192.83 290.588C191.427 290.407 190.853 292.324 190.819 293.738C190.751 296.561 190.683 299.383 190.615 302.205C190.594 303.094 190.914 304.321 191.797 304.221C194.076 303.962 196.355 303.704 198.634 303.446C199.185 303.383 199.778 303.328 200.262 303.598C200.747 303.867 201.003 304.601 200.606 304.988C197.929 305.222 195.252 305.457 192.574 305.691C191.793 305.76 190.981 305.825 190.244 305.557C189.506 305.289 188.864 304.587 188.931 303.805C189.589 296.127 189.736 288.406 189.371 280.709C189.294 279.071 191.288 278.24 192.9 277.938C198.014 276.979 203.23 276.563 208.431 276.7C210.175 276.745 212.076 276.918 213.341 278.12C214.628 279.343 214.881 281.271 215.059 283.038C215.724 289.661 216.389 296.284 217.055 302.907C217.091 303.264 217.099 303.689 216.813 303.906C216.643 304.036 216.414 304.05 216.2 304.059C213.98 304.151 211.76 304.244 209.54 304.336C208.364 304.385 207.098 304.41 206.119 303.757C205.448 303.308 205.004 302.597 204.613 301.89C203.678 300.194 202.93 298.395 202.388 296.535C201.539 298.661 201.001 300.911 200.798 303.191C199.725 303.307 199.526 301.697 199.775 300.647C200.29 298.481 200.804 296.315 201.319 294.149C201.397 293.819 201.522 293.436 201.846 293.335C202.321 293.185 202.687 293.755 202.861 294.222C203.586 296.171 204.311 298.119 205.036 300.067C205.66 301.744 207.46 302.752 209.237 302.958C211.014 303.165 212.795 302.718 214.528 302.274C214.871 302.186 215.26 302.06 215.394 301.732C215.46 301.569 215.447 301.386 215.434 301.211ZM191.283 280.854C192.891 280.875 194.498 280.896 196.106 280.917C197.314 280.932 198.522 280.948 199.729 280.925C204.089 280.843 208.439 280.258 212.666 279.186C211.723 278.218 210.211 278.164 208.86 278.188C204.025 278.275 199.194 278.556 194.381 279.031C193.094 279.158 191.493 279.578 191.283 280.854L191.283 280.854Z" fill="#00160A"/>
<path fill-rule="evenodd" clip-rule="evenodd" d="M184.087 276.691C183.995 276.188 184.647 275.914 185.152 275.836C190.984 274.932 196.894 274.532 202.795 274.643C202.88 274.644 202.967 274.647 203.045 274.679C203.322 274.795 203.309 275.231 203.089 275.435C202.87 275.639 202.546 275.674 202.247 275.696C196.628 276.118 190.926 275.901 185.421 277.103C184.91 277.214 184.181 277.206 184.087 276.691L184.087 276.691Z" fill="#00160A"/>
<path fill-rule="evenodd" clip-rule="evenodd" d="M314.517 264.615C314.839 263.856 315.195 263.054 315.878 262.592C316.455 262.202 317.178 262.116 317.87 262.041C319.923 261.818 321.976 261.595 324.03 261.372C325.045 261.262 326.356 260.834 326.317 259.813C326.193 256.517 326.448 252.72 329.066 250.714C331.462 248.879 335.049 249.382 337.507 251.133C339.965 252.884 341.522 255.611 342.866 258.313C343.46 259.51 345.089 259.728 346.405 259.497C347.722 259.266 349.056 258.748 350.355 259.064C352.354 259.549 353.365 261.733 354.052 263.673C357.501 273.406 359.841 283.553 364.13 292.946C365.735 296.459 365.227 300.843 362.862 303.896C362.57 301.472 362.977 298.967 364.02 296.759C364.512 295.719 362.876 295.035 361.725 295.038C349.999 295.068 338.223 295.101 326.627 296.841C326.273 296.894 325.897 296.959 325.633 297.201C325.376 297.436 325.276 297.792 325.188 298.128C324.828 299.494 324.469 300.86 324.109 302.225C323.884 303.081 324.025 304.409 324.906 304.32C336.382 303.158 347.92 302.604 359.455 302.661C360.668 302.667 362.324 303.148 362.167 304.351C349.879 304.496 337.545 304.644 325.39 306.453C323.455 306.741 322.118 304.344 322.338 302.4C322.557 300.455 323.672 298.711 323.987 296.78C324.258 295.115 323.919 293.417 323.554 291.77C322.974 289.153 322.326 286.55 321.612 283.966C320.914 281.444 320.152 278.941 319.391 276.437C318.239 272.651 317.087 268.864 315.936 265.078C314.352 267.397 313.646 270.301 313.989 273.089C314.228 275.029 314.948 276.873 315.487 278.752C316.257 281.439 316.662 284.215 317.064 286.982C317.857 292.43 318.65 297.879 319.443 303.328C319.559 304.13 319.329 305.311 318.527 305.192C314.964 294.168 315.942 281.979 311.736 271.184C312.663 268.994 313.59 266.805 314.517 264.615ZM341.059 266.616C342.221 265.97 342.822 264.462 342.424 263.194C342.026 261.926 340.671 261.032 339.348 261.166C336.106 261.495 332.864 261.823 329.622 262.152C329.322 262.182 328.987 262.232 328.807 262.473C328.665 262.663 328.663 262.92 328.676 263.157C328.763 264.639 329.277 266.093 330.141 267.3C330.812 268.237 331.741 269.359 331.217 270.386C330.561 271.67 328.408 270.95 327.875 269.612C327.341 268.274 327.72 266.763 327.621 265.326C327.522 263.889 326.489 262.234 325.068 262.473C322.737 262.865 320.407 263.258 318.077 263.65C317.742 263.706 317.306 263.913 317.404 264.238C320.241 273.63 323.079 283.023 325.917 292.416C326.27 293.586 327.067 295.035 328.258 294.757C339.188 292.205 350.712 294.619 361.81 292.941C358.486 282.517 355.046 272.129 351.492 261.781C351.387 261.475 351.268 261.151 351.007 260.96C350.719 260.749 350.331 260.756 349.974 260.771C348.309 260.841 346.644 260.912 344.979 260.982C344.321 261.01 343.423 261.324 343.567 261.967C344.02 263.984 344.472 266.001 344.924 268.017C345.002 268.364 345.079 268.736 344.949 269.067C344.597 269.968 343.27 269.741 342.384 269.351C341.803 269.095 341.192 268.815 340.833 268.291C340.474 267.768 340.505 266.924 341.059 266.616ZM336.769 251.984C335.492 251.047 333.813 250.372 332.34 250.952C331.826 251.154 331.381 251.494 330.942 251.829C330.162 252.427 329.358 253.052 328.897 253.92C328.468 254.729 328.38 255.668 328.3 256.579C328.23 257.375 328.16 258.172 328.09 258.968C328.047 259.462 328.029 260.029 328.387 260.372C328.731 260.701 329.27 260.677 329.743 260.632C333.134 260.31 336.525 259.987 339.916 259.665C340.4 259.619 340.99 259.487 341.118 259.019C341.168 258.834 341.127 258.637 341.082 258.451C340.457 255.881 338.901 253.548 336.769 251.984M335.499 260.408C335.158 260.505 335.537 261.145 335.785 260.892C336.103 260.761 335.751 260.165 335.484 260.38L335.499 260.408Z" fill="#FFB61D"/>
<path fill-rule="evenodd" clip-rule="evenodd" d="M227.984 184.177C227.925 183.978 228.043 183.77 228.183 183.617C228.866 182.865 230.009 182.809 231.026 182.807C237.187 182.792 243.349 182.778 249.511 182.763C249.944 182.762 250.409 182.771 250.763 183.022C251.117 183.272 251.255 183.863 250.915 184.132C250.734 184.275 250.485 184.284 250.254 184.287C243.096 184.366 235.938 184.446 228.779 184.525C228.467 184.529 228.073 184.475 227.984 184.177Z" fill="#00160A"/>
<path fill-rule="evenodd" clip-rule="evenodd" d="M230.268 190.538C229.897 190.324 229.948 189.726 230.261 189.433C230.573 189.139 231.028 189.07 231.453 189.019C234.004 188.712 236.569 188.543 239.132 188.374C240.544 188.281 241.957 188.188 243.369 188.095C245.205 187.974 247.042 187.853 248.878 187.732C249.461 187.693 250.112 187.677 250.552 188.062C250.991 188.448 250.884 189.376 250.3 189.412C243.819 189.813 237.339 190.215 230.858 190.616C230.657 190.629 230.443 190.638 230.268 190.538L230.268 190.538Z" fill="#00160A"/>
<path fill-rule="evenodd" clip-rule="evenodd" d="M265.007 198.917C265.497 197.986 266.029 197.01 266.929 196.468C267.83 195.926 269.212 196.038 269.697 196.971C270.213 197.964 269.445 199.16 268.544 199.823C267.642 200.486 266.533 200.953 265.947 201.907C269.114 203.993 272.28 206.08 275.447 208.166C277.927 209.8 280.733 212.134 280.225 215.061C279.927 216.776 278.473 218.11 276.854 218.75C275.234 219.39 273.454 219.457 271.713 219.507C260.014 219.844 248.304 219.785 236.609 219.329C235.797 219.298 234.892 219.222 234.352 218.616C233.933 218.147 233.847 217.477 233.779 216.852C233.106 210.627 232.433 204.403 231.76 198.178C231.735 197.948 231.711 197.708 231.794 197.492C232.14 196.583 233.499 197.143 234.26 197.749C239.643 202.046 248.25 201.542 253.094 196.645C254.265 195.461 256.257 195.614 257.761 196.328C259.265 197.041 260.523 198.202 262.031 198.905C261.87 198.033 262.64 197.112 263.527 197.116C264.413 197.12 265.175 198.046 265.007 198.917ZM265.669 202.927C265.285 201.515 263.197 201.218 262.046 202.122C260.894 203.026 260.521 204.601 260.421 206.062C260.384 206.606 259.488 206.661 259.181 206.209C258.874 205.758 258.998 205.149 259.169 204.63C259.618 203.261 260.311 201.972 261.204 200.841C261.647 200.281 260.998 199.524 260.414 199.113C258.355 197.665 255.438 196.236 253.548 197.901C248.371 202.461 240.112 203.069 234.323 199.315C234.392 203.988 234.736 208.656 235.353 213.288C235.415 213.755 235.495 214.253 235.818 214.596C236.244 215.05 236.943 215.082 237.566 215.083C247.623 215.096 257.68 215.108 267.737 215.121C268.715 215.122 270.046 214.773 269.969 213.797C269.792 211.527 270.797 209.196 272.57 207.767C271.176 206.754 269.781 205.74 268.386 204.727C267.961 204.418 267.515 204.1 266.997 204.012C265.432 203.743 264.386 205.537 263.833 207.025C262.985 205.509 263.973 203.303 265.669 202.927ZM239.385 218.431C249.858 218.513 260.331 218.496 270.804 218.379C273.777 218.345 277.248 218.044 278.86 215.545C264.399 216.181 249.917 216.338 235.445 216.017C235.265 217.754 237.638 218.418 239.385 218.431M275.226 209.096C274.915 208.899 274.592 208.697 274.229 208.634C273.132 208.446 272.267 209.542 271.791 210.547C271.515 211.128 271.276 211.727 271.074 212.338C270.921 212.804 270.788 213.299 270.885 213.779C270.981 214.26 271.375 214.714 271.865 214.72C273.646 214.74 275.427 214.721 277.207 214.663C277.627 214.649 278.084 214.619 278.398 214.341C278.768 214.013 278.813 213.447 278.721 212.962C278.385 211.204 276.738 210.054 275.226 209.096ZM268.935 197.727C268.916 197.185 268.192 196.909 267.691 197.119C267.19 197.328 266.882 197.825 266.607 198.293C266.275 198.859 265.943 199.425 265.611 199.99C265.436 200.287 265.342 200.791 265.678 200.866C266.562 200.131 267.446 199.396 268.33 198.661C268.626 198.415 268.949 198.112 268.935 197.727ZM263.205 198.611C263.055 199.342 263.43 200.15 264.086 200.508C264.313 199.754 264.18 198.901 263.734 198.253C263.706 198.07 263.458 197.964 263.306 198.071C263.19 198.218 263.148 198.422 263.197 198.604L263.205 198.611Z" fill="#00160A"/>
<path fill-rule="evenodd" clip-rule="evenodd" d="M227.198 177.045C226.932 175.759 226.666 174.472 226.4 173.185C226.297 172.685 226.202 172.13 226.464 171.692C226.822 171.094 227.64 171.015 228.336 171.003C245.431 170.705 262.531 170.77 279.623 171.198C280.789 171.227 281.747 172.234 282.101 173.345C282.456 174.456 282.339 175.656 282.219 176.816C282.154 177.443 282.051 178.142 281.551 178.526C281.141 178.84 280.582 178.848 280.066 178.842C262.899 178.655 245.732 178.468 228.565 178.28C228.282 178.277 227.983 178.269 227.744 178.119C227.394 177.899 227.281 177.45 227.198 177.045ZM229.559 172.131C228.295 172.122 227.399 173.623 227.715 174.847C228.031 176.07 229.213 176.913 230.441 177.21C231.669 177.507 232.955 177.364 234.213 177.246C249.716 175.797 265.393 178.567 280.885 177.004C280.966 176.061 281.043 175.087 280.74 174.191C280.436 173.295 279.645 172.492 278.699 172.485C262.319 172.367 245.939 172.249 229.559 172.131Z" fill="#00160A"/>
<path fill-rule="evenodd" clip-rule="evenodd" d="M124.119 214.316C123.546 215.4 122.757 216.502 121.575 216.824C119.321 217.439 117.458 214.937 116.843 212.684C115.884 209.167 116.126 205.333 117.522 201.965C118.269 200.163 117.647 198.033 116.476 196.473C114.267 193.531 110.148 192.243 106.608 193.244C103.068 194.245 100.275 197.394 99.5341 200.997C99.4181 201.561 99.5 202.353 100.07 202.433C102.915 202.832 104.221 206.171 104.655 209.01C104.985 211.179 105.129 213.451 104.393 215.517C103.658 217.584 101.858 219.399 99.6705 219.565C97.7078 218.243 96.2301 216.218 95.571 213.945C94.3451 209.718 95.9376 205.238 97.5817 201.155C98.5852 198.664 99.6624 196.113 101.568 194.221C105.643 190.176 113.251 190.656 116.785 195.181C118.144 196.922 118.924 199.084 120.431 200.699C121.566 201.916 123.067 202.768 124.103 204.071C126.353 206.902 125.806 211.118 124.119 214.316ZM96.8175 206.502C95.7858 209.345 96.0732 212.637 97.5819 215.259C97.8297 215.689 98.1245 216.118 98.5577 216.361C98.9908 216.605 99.5945 216.609 99.9369 216.249C100.963 215.17 101.091 213.539 101.088 212.05C101.084 210.289 100.975 208.529 100.763 206.781C100.676 206.066 100.528 205.275 99.9491 204.845C99.3706 204.416 98.2845 204.775 98.3753 205.49C98.6397 207.57 98.9041 209.651 99.1684 211.731C99.2286 212.204 99.2816 212.716 99.0444 213.13C98.8073 213.543 98.1524 213.736 97.8521 213.366C97.0741 211.778 96.8395 209.93 97.1961 208.199C97.3243 207.576 97.4128 206.724 96.8175 206.502M120.633 214.751C120.896 214.546 121.019 214.213 121.117 213.894C121.888 211.39 121.896 208.656 121.14 206.146C120.853 205.192 120.074 204.076 119.13 204.396C118.585 204.581 118.308 205.178 118.134 205.727C117.345 208.221 117.45 210.988 118.426 213.415C118.613 213.88 118.844 214.351 119.24 214.658C119.636 214.965 120.238 215.059 120.633 214.751ZM102.116 205.75C102.804 209.234 102.657 212.879 101.693 216.296C101.604 216.611 101.961 216.856 102.26 216.989C103.706 213.481 103.889 209.467 102.769 205.842C102.583 205.709 102.331 205.674 102.116 205.75ZM122.182 204.809C121.968 205.15 121.755 205.491 121.541 205.832C122.245 205.713 122.568 206.674 122.605 207.387C122.692 209.036 122.78 210.685 122.867 212.334C123.523 212.087 123.641 211.226 123.654 210.526C123.681 208.948 123.709 207.371 123.736 205.793C123.5 205.766 123.264 205.738 123.028 205.71C123.003 205.263 122.626 204.862 122.182 204.809Z" fill="#00160A"/>
<path fill-rule="evenodd" clip-rule="evenodd" d="M199.516 207.801C194.817 207.577 190.096 207.781 185.433 208.409C185.021 208.465 184.559 208.512 184.227 208.26C183.896 208.008 183.932 207.34 184.346 207.295C189.009 206.783 193.692 206.453 198.382 206.307C198.892 206.291 199.463 206.3 199.826 206.658C200.189 207.016 200.026 207.825 199.516 207.801Z" fill="#00160A"/>
<path fill-rule="evenodd" clip-rule="evenodd" d="M90.3437 189.035C91.6779 188.91 93.0122 188.784 94.3464 188.659C95.0185 188.596 95.6906 188.533 96.3627 188.469C100.638 188.068 104.913 187.666 109.192 187.309C109.36 187.295 109.536 187.282 109.691 187.347C110.155 187.539 110.083 188.287 109.68 188.585C109.276 188.883 108.73 188.865 108.229 188.849C101.927 188.639 95.6471 190.533 89.3745 189.892C88.9668 189.851 88.4337 189.641 88.5056 189.237C89.1159 189.15 89.73 189.093 90.3437 189.035Z" fill="#00160A"/>
<path fill-rule="evenodd" clip-rule="evenodd" d="M234.049 327.52C233.839 325.685 233.689 323.688 232.455 322.313C231.508 321.258 231.998 319.298 233.329 318.812C234.661 318.327 236.298 319.513 236.252 320.929C236.236 321.416 236.059 321.88 235.921 322.347C234.98 325.534 235.853 328.964 237.004 332.081C238.17 335.239 239.953 338.6 243.155 339.638C246.859 340.838 250.957 338.181 252.599 334.651C254.241 331.12 253.991 327.021 253.418 323.17C253.36 322.784 253.257 322.338 252.902 322.174C251.461 321.509 251.243 319.172 252.535 318.251C253.827 317.33 255.965 318.3 256.123 319.879C256.177 320.414 256.04 320.948 255.938 321.476C255.23 325.144 256.166 328.989 255.391 332.642C254.905 334.93 253.741 337.069 252.083 338.719C250.326 340.469 247.952 341.675 245.473 341.717C242.134 341.774 239.012 339.703 237.125 336.948C235.238 334.194 234.428 330.838 234.049 327.52Z" fill="#00160A"/>
<path fill-rule="evenodd" clip-rule="evenodd" d="M136.687 176.845C136.78 178.102 136.868 179.397 136.477 180.595C136.085 181.794 135.09 182.885 133.834 182.993C127.36 183.55 120.884 184.106 114.398 184.49C105.553 185.014 96.6922 185.215 87.834 185.417C87.518 185.424 87.1798 185.425 86.916 185.251C86.5202 184.99 86.4461 184.45 86.4095 183.977C86.3138 182.739 86.218 181.5 86.1222 180.262C86.0931 179.885 86.071 179.479 86.2739 179.16C86.5712 178.693 87.2076 178.613 87.7599 178.58C104.052 177.615 120.367 177.036 136.687 176.845ZM133.961 181.189C135.002 181.119 135.213 179.481 134.45 178.77C133.686 178.059 132.527 178.043 131.485 178.069C118.076 178.402 104.663 178.736 91.2814 179.646C90.3177 179.711 89.3152 179.792 88.4821 180.28C87.6491 180.769 87.0476 181.797 87.3659 182.709C87.818 184.005 89.566 184.147 90.9351 184.056C105.277 183.1 119.619 182.145 133.961 181.189Z" fill="#00160A"/>
<path fill-rule="evenodd" clip-rule="evenodd" d="M120.04 208.136C120.053 208.477 120.066 208.817 120.079 209.158C120.105 209.867 120.132 210.58 120.029 211.282C119.14 211.188 118.865 210.044 118.813 209.152C118.788 208.727 118.78 208.253 119.064 207.937C119.349 207.621 120.024 207.711 120.04 208.136L120.04 208.136Z" fill="#00160A"/>
<path fill-rule="evenodd" clip-rule="evenodd" d="M184.058 211.039C184.93 210.233 186.256 210.258 187.443 210.292C191.197 210.399 194.962 210.109 198.656 209.428C199.091 209.348 199.325 210.025 199.054 210.375C198.783 210.725 198.292 210.798 197.852 210.843C193.689 211.266 189.509 211.517 185.326 211.595C184.827 211.604 184.195 211.518 184.058 211.039Z" fill="#00160A"/>
<path fill-rule="evenodd" clip-rule="evenodd" d="M324.205 225.113C323.793 226.505 322.425 227.366 321.121 228.004C314.593 231.197 306.919 231.979 299.881 230.168C297.518 229.559 294.825 228.152 294.723 225.714C294.649 223.921 296.08 222.419 297.595 221.458C299.92 219.984 302.63 219.24 305.332 218.714C310.545 217.702 316.196 217.493 320.914 219.928C322.891 220.949 324.835 222.98 324.205 225.113M296.335 225.443C296.339 227.412 298.536 228.565 300.441 229.065C307.057 230.801 314.294 230.052 320.415 226.998C321.397 226.508 322.434 225.862 322.746 224.81C323.165 223.397 322.069 221.973 320.854 221.138C317.197 218.625 312.36 218.969 307.947 219.441C304.397 219.821 300.613 220.318 297.906 222.647C297.07 223.367 296.333 224.339 296.335 225.443L296.335 225.443Z" fill="#00160A"/>
<path fill-rule="evenodd" clip-rule="evenodd" d="M132.132 109.746C131.909 108.48 132.782 107.222 133.907 106.6C135.033 105.978 136.359 105.858 137.642 105.783C149.084 105.109 160.508 106.947 171.954 107.551C173.428 107.629 174.981 107.71 176.22 108.511C177.46 109.311 178.187 111.107 177.33 112.308C176.915 112.888 176.23 113.211 175.549 113.426C173.587 114.046 171.481 113.963 169.425 113.875C158.725 113.415 148.024 112.955 137.324 112.495C135.199 112.404 132.5 111.841 132.132 109.746M133.6 107.911C132.996 108.763 133.502 110.035 134.375 110.608C135.249 111.181 136.349 111.246 137.393 111.293C148.734 111.803 160.074 112.313 171.415 112.824C172.52 112.874 173.744 112.884 174.581 112.162C175.418 111.439 175.308 109.715 174.215 109.541C161.605 107.536 148.808 106.703 136.044 107.057C135.148 107.082 134.119 107.18 133.6 107.911" fill="#00160A"/>
<path fill-rule="evenodd" clip-rule="evenodd" d="M257.605 98.7579C259.346 95.131 262.168 91.3924 266.179 91.0832C268.851 90.8772 271.686 91.3446 273.801 92.9908C277.636 95.9764 277.903 101.766 276.533 106.429C274.917 111.926 271.312 117.017 266.141 119.482C264.907 120.07 263.566 120.509 262.2 120.456C258.572 120.313 255.93 116.749 255.149 113.203C254.078 108.343 255.452 103.244 257.605 98.7579M262.117 119.128C264.799 119.493 267.326 117.785 269.218 115.85C272.764 112.222 275.145 107.472 275.929 102.46C276.156 101.015 276.249 99.5167 275.856 98.1085C275.083 95.3388 272.458 93.3372 269.641 92.7613C266.931 92.2074 263.954 92.8682 261.865 94.6808C260.862 95.552 260.082 96.6522 259.402 97.7937C257.181 101.517 255.919 105.85 256.074 110.183C256.144 112.14 256.515 114.129 257.506 115.819C258.497 117.508 260.177 118.864 262.117 119.128Z" fill="#FFB61D"/>
<path fill-rule="evenodd" clip-rule="evenodd" d="M169.654 252.687C170.01 252.668 170.393 252.656 170.695 252.846C171.068 253.082 171.204 253.551 171.312 253.979C171.547 254.917 171.784 255.892 171.594 256.839C171.405 257.787 170.657 258.697 169.692 258.739C167.229 258.847 164.767 258.954 162.304 259.062C161.339 259.104 160.207 259.242 159.727 260.081C159.402 260.65 159.499 261.356 159.605 262.002C159.907 263.834 160.761 266.15 162.616 266.083C163.85 266.038 164.95 266.975 165.482 268.09C166.013 269.205 166.092 270.473 166.163 271.706C166.23 272.867 165.933 274.453 164.771 274.482C163.834 274.506 163.575 275.772 163.605 276.709C163.812 283.227 164.019 289.744 164.226 296.262C164.26 297.312 162.914 297.754 161.868 297.859C153.108 298.743 144.257 298.72 135.501 297.79C135.187 297.756 134.786 297.633 134.779 297.318C134.617 289.953 134.455 282.589 134.293 275.225C134.284 274.796 134.073 274.202 133.659 274.315C132.354 274.672 131.042 273.461 130.772 272.136C130.502 270.81 130.966 269.457 131.422 268.184C131.633 267.596 131.87 266.971 132.375 266.603C133.454 265.815 135.447 266.376 135.93 265.131C136.01 264.925 136.025 264.7 136.017 264.479C135.95 262.556 134.159 261.038 132.273 260.658C130.386 260.278 128.442 260.778 126.605 261.351C126.184 259.762 126.076 258.091 126.289 256.462C126.339 256.077 126.418 255.673 126.676 255.384C127.044 254.971 127.658 254.914 128.21 254.885C142.025 254.152 155.839 253.42 169.654 252.687ZM132.822 267.607C132.556 267.916 132.497 268.346 132.449 268.75C132.325 269.804 132.2 270.857 132.075 271.911C132.049 272.133 132.025 272.367 132.114 272.571C132.305 273.009 132.883 273.085 133.361 273.097C135.897 273.16 138.433 273.223 140.969 273.286C141.397 273.296 141.846 273.302 142.225 273.105C142.836 272.789 143.087 271.929 142.743 271.333C143.053 271.301 143.363 271.27 143.674 271.238C143.537 272.157 144.473 272.926 145.392 273.061C146.311 273.196 147.235 272.915 148.161 272.842C150.103 272.689 152.042 273.45 153.976 273.222C154.18 273.198 154.397 273.155 154.539 273.008C154.725 272.815 154.722 272.514 154.707 272.246C154.633 270.962 154.56 269.678 154.487 268.394C154.464 267.99 154.429 267.555 154.169 267.244C153.798 266.801 153.133 266.787 152.556 266.809C149.764 266.917 146.972 267.025 144.18 267.133C143.985 267.141 143.769 267.157 143.634 267.298C143.482 267.456 143.493 267.703 143.513 267.921C143.607 268.92 143.701 269.919 143.795 270.919C143.424 270.954 143.061 271.063 142.732 271.236C142.649 270.448 142.567 269.661 142.484 268.874C142.409 268.156 142.128 267.236 141.406 267.227C139.102 267.196 136.797 267.165 134.493 267.134C133.894 267.126 133.213 267.153 132.822 267.607ZM146.098 275.353C146.06 274.823 145.83 274.122 145.301 274.179C142.015 274.532 138.69 274.511 135.408 274.118C135.489 281.268 135.623 288.418 135.808 295.566C135.832 296.486 136.993 296.854 137.908 296.948C140.628 297.227 143.366 297.322 146.099 297.232C146.323 297.225 146.565 297.21 146.736 297.064C146.96 296.874 146.975 296.538 146.972 296.244C146.893 289.274 146.602 282.306 146.098 275.353ZM162.53 274.959C162.44 274.806 162.235 274.773 162.058 274.758C159.231 274.519 156.39 274.452 153.555 274.557C153.298 274.567 153.023 274.584 152.82 274.741C152.511 274.98 152.492 275.432 152.5 275.822C152.656 282.958 152.813 290.094 152.969 297.231C156.09 297.532 159.267 297.237 162.28 296.367C162.467 296.313 162.666 296.249 162.787 296.096C162.918 295.931 162.926 295.704 162.929 295.493C162.988 290.902 162.87 286.31 162.751 281.72C162.695 279.558 162.639 277.395 162.583 275.233C162.581 275.139 162.577 275.041 162.53 274.959ZM127.481 256.869C126.939 257.721 127.521 258.924 128.412 259.4C129.303 259.876 130.37 259.83 131.378 259.772C137.478 259.418 143.578 259.065 149.678 258.711C155.495 258.374 161.313 258.037 167.121 257.564C167.971 257.495 168.865 257.408 169.568 256.924C170.271 256.44 170.679 255.416 170.207 254.705C169.735 253.991 168.718 253.959 167.863 254.003C155.188 254.656 142.513 255.31 129.838 255.964C128.963 256.009 127.951 256.129 127.481 256.869ZM151.862 297.064C151.433 290.098 151.348 283.111 151.607 276.136C151.622 275.736 151.636 275.319 151.476 274.951C151.009 273.878 149.507 273.881 148.35 274.06C147.821 274.142 147.146 274.394 147.185 274.928C147.681 281.6 148.178 288.282 148.066 294.971C148.052 295.857 148.558 296.732 149.334 297.16C150.11 297.587 151.12 297.549 151.862 297.064ZM164.952 271.347C164.801 270.427 164.644 269.486 164.195 268.668C163.746 267.851 162.942 267.166 162.011 267.119C160.241 267.031 158.471 266.943 156.701 266.855C156.24 266.832 155.604 266.971 155.626 267.431C155.693 268.832 155.761 270.233 155.828 271.633C155.858 272.245 155.972 272.983 156.538 273.215C156.721 273.29 156.923 273.295 157.121 273.3C159.428 273.353 161.736 273.405 164.044 273.458C164.484 273.468 164.853 273.081 164.973 272.657C165.094 272.233 165.023 271.782 164.952 271.347ZM153.779 264.445C153.548 263.472 153.307 262.477 152.754 261.644C152.202 260.811 151.263 260.161 150.266 260.234C148.73 260.347 147.193 260.46 145.657 260.573C144.699 260.643 143.616 260.781 143.054 261.56C142.376 262.501 142.841 263.816 142.658 264.962C142.593 265.365 142.908 265.75 143.285 265.907C143.661 266.063 144.084 266.045 144.492 266.024C147.242 265.882 149.993 265.741 152.743 265.599C153.147 265.579 153.632 265.505 153.793 265.134C153.886 264.919 153.833 264.672 153.779 264.445ZM158.599 262.683C158.076 261.966 158.089 260.904 158.629 260.2C157.665 259.602 156.315 259.712 155.461 260.46C154.608 261.208 154.32 262.532 154.787 263.567C154.951 263.931 154.857 264.363 154.973 264.746C155.137 265.29 155.707 265.632 156.271 265.702C156.835 265.772 157.4 265.623 157.949 265.477C158.67 265.284 159.546 264.899 159.539 264.153C159.534 263.559 158.95 263.164 158.599 262.683ZM141.41 265.236C141.73 264.191 141.3 262.999 140.48 262.277C139.66 261.555 138.511 261.274 137.423 261.372C136.986 261.411 136.53 261.52 136.213 261.824C135.897 262.128 135.784 262.676 136.069 263.01C136.279 263.256 136.64 263.328 136.86 263.566C137.197 263.929 137.083 264.509 137.238 264.98C137.586 266.042 139.028 266.142 140.142 266.041C140.523 266.006 140.943 265.952 141.194 265.663C141.3 265.541 141.363 265.389 141.41 265.236ZM141.591 261.72C141.849 261.471 141.896 261.032 141.696 260.733C141.251 260.601 140.754 260.865 140.521 261.266C140.694 261.664 141.183 261.894 141.601 261.774M154.276 260.611C154.34 260.437 154.302 260.228 154.18 260.088C153.758 259.954 153.267 260.074 152.953 260.386C153.276 260.752 153.862 260.851 154.287 260.611L154.276 260.611Z" fill="#00160A"/>
<path fill-rule="evenodd" clip-rule="evenodd" d="M324.326 230.998C310.803 236.286 297.28 241.574 283.757 246.862C277.94 249.136 271.211 252.551 270.587 258.765C278.489 252.686 288.25 249.058 298.205 248.5C291.328 257.165 282.644 264.389 272.873 269.574C264.097 274.23 252.987 279.197 252.235 289.102C261.659 277.88 276.149 271.086 290.803 271.018C281.428 284.75 266.394 294.49 250.03 297.434C250.591 301.654 251.153 305.874 251.715 310.094C257.275 309.897 262.869 310.692 268.154 312.431C271.917 328.6 275.681 344.769 279.445 360.938C280.371 364.917 281.186 369.489 278.75 372.768C276.333 376.021 271.768 376.581 267.725 376.868C251.793 378.001 235.86 379.134 219.928 380.266C218.02 371.624 216.112 362.982 214.205 354.339C187.33 356.835 160.455 359.33 133.58 361.826C127.921 362.351 121.935 362.822 116.814 360.357C98.2382 351.414 75.7146 368.724 56.0951 362.391C73.3329 362.066 90.5176 359.059 106.842 353.512C112.762 351.5 119.85 345.989 116.757 340.555C101.618 351.118 82.1944 355.335 64.0387 352C65.1047 334.369 64.4192 316.632 61.9954 299.135C74.9139 297.287 87.6451 294.133 99.9321 289.736C103.35 288.513 106.866 287.106 109.3 284.413C111.734 281.72 112.718 277.369 110.579 274.435C91.8909 284.394 70.3131 288.851 49.2087 287.111C50.3099 310.991 51.4112 334.871 52.5124 358.75C49.3929 334.888 47.7386 310.834 47.5618 286.769C58.4254 285.806 69.2891 284.842 80.1528 283.879C78.406 276.125 76.6482 268.193 77.5455 260.295C78.4428 252.397 82.5077 244.399 89.6527 240.916C84.2472 229.387 76.0779 219.165 66.0241 211.351C54.2381 202.19 39.085 195.284 33.7028 181.361C30.1441 172.155 31.8897 161.447 36.8172 152.895C41.7448 144.343 49.5529 137.756 58.0394 132.717C46.3555 129.713 37.5056 118.067 37.7423 106.005C37.9791 93.944 47.2794 82.6535 59.0721 80.1112C53.5121 73.4855 44.7571 70.4486 38.3622 64.6246C30.9126 57.8401 27.1691 46.896 29.8827 37.1922C32.5963 27.4885 42.1506 19.8537 52.2174 20.2839C60.4865 20.6373 67.7634 25.8673 73.5354 31.799C82.4871 40.9985 89.1446 52.4136 92.744 64.7346C95.1431 72.947 103.936 77.1249 111.361 81.3749C118.786 85.6249 126.498 93.028 124.406 101.324C121.64 89.9719 112.352 80.4563 101.07 77.4161C95.1918 75.832 93.0495 68.8365 91.1585 63.0494C87.4788 51.7879 81.1974 41.3853 72.9443 32.8854C66.742 26.4976 58.6329 20.9235 49.7423 21.4034C40.59 21.8974 32.522 29.3423 30.4296 38.2659C28.3371 47.1896 31.8454 56.9675 38.5235 63.2454C45.3256 69.6398 55.0567 72.772 60.5407 80.3274C48.6468 82.7446 39.2436 94.1907 39.1811 106.328C39.1187 118.464 48.4036 130.007 60.2719 132.546C51.908 137.442 44.0818 143.661 38.9216 151.865C33.7614 160.068 31.5494 170.48 34.6369 179.666C41.7784 200.914 71.5445 205.986 82.0489 225.788C84.8938 216.443 80.7235 206.618 78.5801 197.089C76.4367 187.559 77.6483 175.321 86.5333 171.263C83.9366 158.747 81.3399 146.232 78.7432 133.716C76.8082 124.39 75.8374 112.575 83.8602 107.441C78.2074 105.688 73.1905 101.954 69.8887 97.0418C73.4543 102.5 80.3217 105.596 86.7726 104.655C78.6205 86.9837 69.5816 69.7213 59.7012 52.9546C70.3475 69.0075 79.7698 85.8719 87.8593 103.353C125.274 102.341 162.748 103.494 200.03 106.804C204.98 107.243 210.308 107.883 213.967 111.245C219.225 116.077 227.12 117.84 233.934 115.703C236.102 121.077 237.697 127.114 235.854 132.608C234.011 138.103 227.483 142.296 222.265 139.776C223.627 146.784 224.989 153.791 226.351 160.799C239.693 160.959 253.034 161.232 266.371 161.616C273.44 161.82 280.828 162.142 286.972 165.644C293.116 169.146 297.451 176.904 294.715 183.424C296.46 178.035 298.206 172.647 299.951 167.258C306.103 177.023 309.125 188.728 308.468 200.251C310.599 197.008 312.73 193.765 314.861 190.523C307.289 178.606 306.326 162.767 312.396 150.02C318.35 159.88 321.704 171.294 322.03 182.808C324.25 162.058 338.952 143.141 358.511 135.866C355.118 143.685 351.725 151.504 348.331 159.324C345.426 166.018 341.735 173.444 334.753 175.571C330.148 176.974 323.48 176.889 322.645 181.63C335.872 178.162 349.951 177.99 363.259 181.135C353.004 193.464 333.243 196.5 319.76 187.817C313.399 194.911 307.888 202.766 303.382 211.161C311.037 201.648 322.949 195.699 335.152 195.295C328.596 203.043 321.201 210.082 313.138 216.248C317.417 216.659 322.044 217.223 325.148 220.197C328.253 223.171 328.33 229.432 324.326 230.998ZM145.824 152.908C149.371 152.867 153.343 152.993 155.819 155.533C157.708 157.47 158.214 160.328 158.626 163.003C160.509 175.233 162.272 187.481 163.914 199.746C164.326 202.823 161.747 205.661 158.801 206.637C155.854 207.612 152.65 207.184 149.578 206.746C152.14 204.534 156.465 206.12 159.222 204.157C161.695 202.398 161.681 198.784 161.385 195.764C160.275 184.438 158.763 173.152 156.853 161.934C156.516 159.951 156.102 157.841 154.698 156.401C152.827 154.484 149.838 154.356 147.159 154.353C136.164 154.339 125.168 154.326 114.172 154.312C112.277 154.31 110.283 154.332 108.638 155.273C103.903 157.979 105.649 165.126 108.002 170.045C114.67 168.694 121.482 168.06 128.285 168.159C134.311 168.246 141.826 170.203 142.842 176.144C145.074 189.195 147.307 202.245 149.539 215.296C150.71 222.139 151.355 230.453 145.887 234.73C143.154 236.867 139.527 237.376 136.086 237.811C127.624 238.881 119.162 239.951 110.7 241.021C114.224 271.88 117.748 302.74 121.273 333.599C121.666 337.041 122.386 340.998 125.412 342.684C127.203 343.681 129.375 343.599 131.421 343.488C158.384 342.018 185.32 340.07 212.214 337.647C211.138 335.196 211.117 332.303 212.156 329.836C214.88 345.784 217.604 361.731 220.328 377.678C225.098 374.39 224.364 367.254 223.098 361.602C219.893 347.291 216.687 332.98 213.481 318.669C212.183 321.05 210.885 323.431 209.588 325.812C208.95 322.839 210.734 319.764 213.208 317.997C215.681 316.229 218.731 315.505 221.703 314.867C230.842 312.908 240.081 311.411 249.371 310.385C246.671 291.34 243.972 272.295 241.272 253.25C224.673 257.809 207.095 256.374 189.945 254.904C184.865 254.468 178.41 252.759 177.926 247.683C176.708 234.925 175.49 222.166 174.272 209.408C174.114 207.745 173.15 205.504 171.563 206.028C167.665 207.316 165.346 201.761 165.027 197.667C164.026 184.828 163.025 171.989 162.023 159.149C161.892 157.465 161.858 155.522 163.114 154.392C163.993 153.602 165.259 153.457 166.437 153.349C174.838 152.581 183.239 151.813 191.64 151.045C196.438 150.606 201.887 150.379 205.378 153.699C207.842 156.042 208.669 159.595 209.189 162.955C210.147 169.148 210.465 175.44 210.134 181.697C209.468 175.581 208.803 169.464 208.137 163.347C207.837 160.595 207.472 157.676 205.733 155.522C202.765 151.845 197.244 151.907 192.535 152.294C184.122 152.986 175.71 153.678 167.297 154.371C166.164 154.464 164.936 154.598 164.113 155.381C163.042 156.401 163.072 158.088 163.179 159.563C164.08 171.972 164.982 184.38 165.883 196.788C166.053 199.13 166.285 201.634 167.765 203.456C169.246 205.279 172.458 205.851 173.842 203.954C171.946 199.787 174.568 194.685 178.449 192.257C182.329 189.829 187.091 189.401 191.654 189.037C199.524 188.41 207.393 187.782 215.263 187.154C214.724 170.866 212.967 154.618 210.013 138.591C207.291 137.83 204.812 136.221 203.009 134.045C201.659 137.521 197.64 139.731 193.981 139.006C190.323 138.282 187.448 134.708 187.525 130.979C187.091 135.27 183.353 138.992 179.061 139.407C174.768 139.822 170.387 136.885 169.139 132.757C167.083 135.05 164.416 137.025 161.349 137.304C158.283 137.583 154.891 135.647 154.392 132.608C150.365 137.833 141.006 137.303 137.594 131.657C134.085 137.448 124.096 137.306 120.753 131.417C119.252 136.861 110.874 137.297 106.852 133.332C102.83 129.368 102.048 123.261 101.488 117.642C94.8495 124.038 93.6518 134.313 94.9118 143.445C96.1718 152.577 99.4551 161.374 100.252 170.558C102.07 171.016 104.065 170.727 105.679 169.773C103.936 164.503 102.789 157.423 107.523 154.524C109.422 153.362 111.771 153.302 113.998 153.276C124.606 153.153 135.215 153.031 145.824 152.908ZM250.918 241.593C264.834 240.903 279.191 242.716 292.415 238.33C294.462 237.652 296.558 236.757 297.877 235.051C294.499 233.499 290.911 230.822 290.994 227.105C291.048 224.663 292.739 222.553 294.645 221.027C296.646 219.425 298.975 218.235 301.446 217.552C301.646 216.941 300.571 216.808 300.038 217.17C299.505 217.531 298.697 217.978 298.343 217.441C298.248 217.297 298.228 217.117 298.211 216.945C296.884 203.437 294.917 189.992 292.319 176.669C291.538 172.664 290.377 168.202 286.847 166.155C284.941 165.05 282.656 164.864 280.458 164.712C263.909 163.567 247.33 162.866 230.744 162.609C226.824 162.549 222.439 162.694 219.691 165.49C217.607 167.611 217.01 170.761 216.789 173.727C216.105 182.91 218.072 192.051 219.351 201.17C220.884 212.094 221.435 223.128 222.446 234.113C222.581 235.575 222.744 237.098 223.535 238.335C224.89 240.455 227.642 241.12 230.134 241.469C233.816 241.985 237.539 242.204 241.256 242.122C244.481 242.05 247.697 241.753 250.918 241.593ZM136.709 170.735C131.998 168.664 126.602 169.219 121.49 169.812C113.758 170.71 106.026 171.607 98.2935 172.505C94.5771 172.937 90.857 173.369 87.1805 174.062C86.2941 174.229 85.4047 174.413 84.5685 174.751C81.2914 176.076 79.3377 179.609 78.8831 183.114C78.4285 186.62 79.2076 190.153 79.9545 193.608C82.2757 204.345 84.3344 215.183 84.8928 226.154C85.0033 228.326 85.0589 230.526 85.6558 232.617C86.2527 234.709 87.4716 236.72 89.3774 237.768C90.8435 238.574 92.5657 238.741 94.235 238.85C109.536 239.856 124.828 237.389 139.963 234.929C142.116 234.58 144.382 234.18 146.061 232.787C148.653 230.635 149.04 226.849 149.022 223.48C148.987 217.257 148.234 211.039 146.781 204.988C145.083 197.911 142.415 190.949 142.344 183.672C142.313 180.462 142.735 177.003 141.06 174.265C140.07 172.646 138.445 171.498 136.709 170.735ZM63.9012 305.494C65.9581 320.273 66.6491 335.241 65.9627 350.146C65.9265 350.932 66.8812 351.332 67.6537 351.48C77.548 353.371 87.7375 350.948 97.3385 347.899C102.796 346.166 108.258 344.191 112.978 340.949C115.138 339.466 117.323 337.231 116.919 334.643C114.325 318.015 112.898 301.205 112.653 284.378C103.917 291.204 92.831 294.1 82.0867 296.833C76.9944 298.129 71.833 299.433 66.5787 299.389C65.3085 299.379 64.2539 300.494 63.8989 301.714C63.5439 302.934 63.7262 304.236 63.9012 305.494ZM264.704 312.965C248.34 311.371 231.647 313.243 216.042 318.42C216.979 325.547 218.26 332.63 219.877 339.635C220.525 342.439 221.227 345.231 221.928 348.023C223.295 353.46 224.661 358.898 226.028 364.335C226.218 365.092 226.456 365.919 227.109 366.347C227.691 366.729 228.444 366.686 229.138 366.628C245.297 365.28 261.446 363.82 277.584 362.248C274.056 346.522 270.528 330.795 267 315.069C266.865 314.465 266.701 313.814 266.221 313.424C265.804 313.086 265.238 313.017 264.704 312.965ZM240.582 243.93C237.021 244.112 233.407 244.289 229.931 243.499C226.454 242.709 223.071 240.814 221.285 237.728C220.26 238.907 218.223 238.996 217.1 237.909C215.976 236.823 215.997 234.784 217.141 233.72C212.618 233.761 208.095 233.802 203.571 233.842C205.639 235.06 205.469 238.65 203.332 239.741C201.195 240.832 198.237 238.99 198.187 236.591C198.165 235.514 198.825 234.305 199.898 234.209C199.454 233.447 198.299 233.898 197.42 233.815C196.097 233.689 195.373 232.247 194.909 231.001C193.026 225.949 191.312 220.835 189.599 215.722C190.799 217.685 193.5 218.569 195.628 217.693C196.38 217.384 196.403 216.303 196.082 215.556C195.524 214.251 194.25 213.245 192.835 213.134C191.42 213.023 189.948 213.888 189.469 215.224C188.76 214.694 189.062 213.468 189.806 212.987C190.55 212.507 191.503 212.549 192.387 212.603C200.73 213.107 209.104 213.099 217.446 212.579C217.826 212.555 218.244 212.513 218.503 212.234C218.796 211.919 218.768 211.432 218.721 211.005C218.402 208.07 218.083 205.136 217.764 202.202C217.729 201.876 217.679 201.52 217.436 201.301C217.168 201.06 216.764 201.071 216.405 201.096C205.948 201.842 195.518 202.967 185.143 204.47C184.038 204.63 183.011 203.704 182.663 202.643C182.314 201.583 182.475 200.431 182.64 199.328C182.698 198.94 182.771 198.521 183.058 198.255C183.322 198.009 183.705 197.951 184.063 197.906C194.857 196.528 205.722 195.701 216.6 195.43C216.336 196.505 214.935 196.736 213.828 196.756C203.732 196.935 193.647 197.744 183.651 199.177C182.853 200.542 183.947 202.381 185.42 202.955C186.894 203.529 188.544 203.222 190.098 202.929C198.662 201.318 207.351 200.368 216.061 200.091C217.304 200.052 217.453 198.262 217.192 197.046C216.585 194.221 215.978 191.396 215.371 188.571C209.339 189.713 203.177 190.169 197.043 189.927C193.413 189.783 189.803 190.417 186.226 191.049C183.186 191.586 179.946 192.223 177.749 194.392C175.181 196.927 174.72 200.891 174.876 204.496C175.132 210.411 176.633 216.197 177.374 222.071C178.279 229.247 178.046 236.522 178.741 243.722C178.929 245.662 179.196 247.638 180.065 249.382C180.935 251.126 182.516 252.623 184.444 252.91C200.282 255.272 216.432 255.54 232.34 253.706C233.81 253.536 235.292 253.346 236.679 252.832C238.869 252.023 240.746 250.399 241.863 248.349C242.312 247.526 242.646 246.585 242.483 245.662C242.319 244.739 241.518 243.882 240.582 243.93ZM113.958 284.392C115.616 302.628 117.273 320.865 118.931 339.101C119.229 342.379 119.516 345.765 118.491 348.892C117.467 352.02 114.771 354.847 111.482 354.955C113.413 357.78 116.746 359.395 120.117 359.987C123.487 360.578 126.943 360.265 130.35 359.95C158.425 357.356 186.501 354.762 214.576 352.168C213.973 348.66 213.371 345.151 212.768 341.643C212.633 340.856 212.246 339.857 211.45 339.917C192.146 341.355 172.843 342.794 153.539 344.232C145.613 344.823 137.647 345.414 129.725 344.766C125.716 344.438 120.765 342.845 120.369 338.842C117.205 306.817 113.541 274.841 109.38 242.93C109.316 242.439 109.237 241.914 108.901 241.55C108.453 241.065 107.712 241.028 107.051 241.024C103.103 241.004 99.1562 240.984 95.2089 240.964C96.3618 247.504 97.8583 253.983 99.6901 260.365C100.029 261.545 100.592 262.922 101.8 263.134C106.141 263.897 109.566 267.467 111.352 271.495C113.138 275.524 113.559 280.004 113.958 284.392ZM98.7925 170.879C95.4045 153.695 92.5379 136.408 90.1981 119.051C90.0658 118.069 89.9377 117.051 90.2266 116.104C90.822 114.151 92.9581 113.127 94.9447 112.656C98.8285 111.735 102.884 112.042 106.865 112.336C143.26 115.019 179.773 116.093 216.263 115.553C214.812 112.609 211.893 110.602 208.789 109.537C205.684 108.472 202.367 108.236 199.093 108.01C166.972 105.79 134.803 103.71 102.608 104.097C98.6693 104.145 94.6843 104.235 90.881 105.261C87.0777 106.287 83.4183 108.353 81.2241 111.624C77.7665 116.779 78.6028 123.589 79.673 129.703C82.1792 144.022 85.2282 158.246 88.8114 172.334C92.1384 171.849 95.4655 171.364 98.7925 170.879ZM177.157 137.293C178.896 137.312 180.704 137.214 182.243 136.404C184.953 134.977 186.157 131.69 186.336 128.632C186.515 125.574 185.911 122.509 186.106 119.452C186.15 118.755 186.539 117.832 187.215 118.007C187.705 121.526 188.194 125.045 188.684 128.564C188.954 130.507 189.235 132.486 190.086 134.254C190.938 136.021 192.468 137.574 194.394 137.944C195.501 138.157 196.656 137.966 197.71 137.57C200.235 136.621 202.351 134.205 202.255 131.509C202.123 127.787 201.99 124.066 201.857 120.344C201.805 118.872 201.258 116.91 199.786 116.987C189.977 117.501 180.139 117.456 170.335 116.851C169.62 116.807 169.431 117.82 169.507 118.532C169.9 122.224 170.292 125.915 170.684 129.606C170.981 132.393 171.613 135.669 174.17 136.816C175.097 137.232 176.142 137.283 177.157 137.293ZM227.467 368.93C226.997 369.26 226.687 369.766 226.401 370.264C224.913 372.854 223.718 375.611 222.844 378.467C240.015 377.267 257.172 375.873 274.311 374.286C274.955 374.226 275.654 374.142 276.116 373.689C276.416 373.395 276.57 372.987 276.715 372.593C277.357 370.85 277.998 369.108 278.64 367.365C278.952 366.517 279.229 365.462 278.619 364.795C278.112 364.241 277.249 364.259 276.501 364.319C260.831 365.574 245.168 366.926 229.515 368.375C228.802 368.441 228.053 368.519 227.467 368.93ZM257.736 263.141C257.271 257.724 256.326 251.644 251.905 248.479C250.179 253.229 248.438 258.052 248.043 263.091C247.649 268.129 248.762 273.5 252.142 277.258C252.617 277.786 253.145 278.298 253.397 278.962C253.649 279.626 253.521 280.503 252.904 280.855C248.31 276.858 246.408 270.446 246.516 264.357C246.624 258.269 248.49 252.365 250.339 246.563C250.745 245.288 249.583 243.947 248.278 243.65C246.974 243.352 245.627 243.788 244.36 244.219C244.113 244.303 244.005 244.584 243.927 244.833C243.051 247.624 242.167 250.583 242.845 253.429C245.768 265.689 245.391 278.557 248.366 290.805C248.476 291.257 248.595 291.719 248.859 292.103C250.832 288.244 252.805 284.386 254.779 280.527C255.706 278.714 256.639 276.889 257.217 274.936C258.343 271.14 258.074 267.086 257.736 263.141ZM327.543 174.146C327.924 174.461 328.436 174.56 328.927 174.615C334.507 175.239 339.773 171.441 342.863 166.752C345.954 162.064 347.414 156.525 349.439 151.288C351.341 146.373 353.772 141.663 356.679 137.267C350.86 142.728 343.696 146.551 337.622 151.726C331.548 156.902 326.379 164.16 326.807 172.128C326.847 172.865 326.974 173.677 327.543 174.146ZM104.048 121.342C104.842 124.819 104.514 128.684 106.44 131.685C108.308 134.595 112.247 135.982 115.526 134.883C118.804 133.785 121.113 130.305 120.851 126.857C120.792 126.074 120.615 125.304 120.438 124.538C119.748 121.538 119.057 118.538 118.366 115.538C118.298 115.24 118.221 114.926 118.009 114.705C117.706 114.387 117.22 114.35 116.781 114.334C112.561 114.172 108.341 114.01 104.121 113.849C103.715 113.833 103.27 113.83 102.954 114.086C102.555 114.41 102.532 115.005 102.584 115.516C102.786 117.511 103.602 119.387 104.048 121.342ZM218.278 124.586C218.379 129.389 221.508 133.565 224.808 137.057C225.131 137.398 225.461 137.74 225.864 137.981C226.515 138.37 227.308 138.462 228.064 138.397C230.613 138.178 232.794 136.25 233.87 133.929C234.946 131.607 235.067 128.951 234.835 126.403C234.604 123.855 234.04 121.345 233.812 118.797C233.766 118.285 233.579 117.618 233.066 117.62C228.554 117.637 224.043 117.655 219.531 117.672C218.954 117.674 218.342 117.686 217.855 117.995C217.368 118.304 217.095 119.025 217.457 119.475C218.561 120.849 218.241 122.823 218.278 124.586ZM286.884 273.159C274.524 272.941 263.193 280.269 254.547 289.105C253.09 290.595 251.667 292.157 250.697 294.001C250.525 294.328 250.39 294.782 250.671 295.021C250.821 295.147 251.035 295.155 251.231 295.155C258.422 295.129 265.338 292.091 271.181 287.899C277.024 283.707 281.946 278.386 286.884 273.159ZM133.939 134.011C135.705 132.994 136.841 130.97 136.79 128.934C136.764 127.901 136.459 126.898 136.213 125.895C135.581 123.312 135.336 120.635 135.487 117.981C135.519 117.415 135.568 116.834 135.398 116.294C135.228 115.754 134.777 115.257 134.211 115.226C129.541 114.971 124.87 114.716 120.199 114.461C120.031 114.452 119.848 114.447 119.712 114.547C119.502 114.701 119.513 115.014 119.552 115.272C120.127 119.072 121.966 122.653 122.084 126.495C122.128 127.909 121.939 129.358 122.335 130.716C122.842 132.455 124.29 133.828 125.97 134.504C127.651 135.181 129.536 135.219 131.319 134.898C132.231 134.733 133.136 134.473 133.939 134.011ZM320.838 186.048C324.221 187.002 327.212 188.997 330.493 190.256C337.769 193.047 346.428 191.881 352.707 187.267C355.404 185.286 358.1 183.305 360.796 181.324C357.509 182.102 354.11 182.4 350.738 182.205C345.104 181.881 339.54 180.193 333.913 180.616C329.126 180.975 324.47 182.909 320.838 186.048ZM224.239 160.016C223.574 156.333 222.909 152.65 222.244 148.966C221.353 144.03 220.462 139.094 219.571 134.157C219.508 133.807 219.431 133.431 219.172 133.188C218.912 132.944 218.406 132.943 218.264 133.27C217.374 135.324 215.552 136.953 213.411 137.607C212.112 138.003 212.001 139.776 212.152 141.126C213.217 150.65 214.478 160.152 215.934 169.624C216.358 165.75 219.677 162.386 223.545 161.911C224.298 161.819 224.374 160.762 224.239 160.016M153.17 130.058C152.756 126.087 152.235 122.128 151.607 118.186C151.477 117.373 151.131 116.359 150.308 116.323C146.057 116.137 141.805 115.95 137.554 115.764C137.403 115.757 137.243 115.752 137.108 115.823C136.765 116.005 136.822 116.506 136.923 116.881C137.903 120.521 138.423 124.285 138.467 128.054C138.478 128.982 138.467 129.945 138.856 130.788C139.427 132.028 140.728 132.739 141.964 133.318C144.119 134.328 146.474 135.215 148.825 134.848C151.176 134.482 153.416 132.425 153.17 130.058ZM155.008 130.08C155.437 132.158 156.223 134.574 158.258 135.172C159.976 135.676 161.833 135.815 163.556 135.329C165.279 134.843 166.85 133.687 167.621 132.071C168.17 130.921 168.294 129.619 168.365 128.347C168.561 124.862 168.426 121.358 167.964 117.899C167.939 117.713 167.911 117.523 167.818 117.361C167.57 116.932 166.985 116.871 166.489 116.861C162.16 116.766 157.831 116.672 153.502 116.578C153.148 116.57 152.655 116.938 152.954 117.126C153.438 121.473 154.124 125.797 155.008 130.08ZM300.472 173.075C297.09 180.72 296.094 189.401 297.656 197.614C298.281 200.895 299.508 204.377 302.348 206.134C303.183 206.651 304.577 206.804 304.886 205.871C308.479 195.032 306.802 182.578 300.472 173.075ZM81.2756 269.069C82.7102 270.053 84.3274 270.771 86.02 271.174C88.1587 271.683 90.3799 271.69 92.5779 271.743C97.714 271.866 102.844 272.26 107.938 272.921C108.649 273.013 109.237 272.244 109.218 271.527C109.199 270.811 108.763 270.178 108.312 269.621C105.594 266.274 101.626 263.967 97.3727 263.261C94.3596 262.762 91.2787 263.042 88.2257 262.954C85.1726 262.866 81.9859 262.349 79.5513 260.505C79.4224 262.259 79.4121 264.021 79.5206 265.776C79.5645 266.487 79.6362 267.223 79.9982 267.836C80.3017 268.35 80.7838 268.731 81.2756 269.069ZM204.845 132.845C205.324 133.714 206.093 134.384 206.882 134.988C207.736 135.643 208.658 136.255 209.707 136.495C212.29 137.087 214.931 135.173 216.019 132.758C217.108 130.342 216.997 127.573 216.745 124.935C216.555 122.941 216.295 120.954 215.967 118.977C215.913 118.648 215.85 118.303 215.642 118.041C215.279 117.581 214.614 117.528 214.028 117.513C210.879 117.429 207.731 117.345 204.582 117.261C203.885 117.243 202.895 117.576 203.102 118.242C204.028 121.224 204.432 124.366 204.29 127.485C204.207 129.305 203.965 131.249 204.845 132.845ZM316.273 188.197C319.616 182.802 320.617 176.01 318.972 169.88C317.517 164.461 314.136 159.66 313.064 154.153C310.566 161.733 308.05 169.894 310.311 177.549C311.469 181.472 313.808 184.932 316.273 188.197ZM260.893 273.069C270.835 270.508 280.013 265.049 287.008 257.534C289.101 255.285 291.243 253.083 293.433 250.929C288.068 251.664 282.831 253.324 278.021 255.812C270.683 259.607 264.244 265.518 260.893 273.069ZM321.467 207.076C325.124 203.64 328.78 200.203 332.437 196.766C320.071 198.343 308.522 205.488 301.592 215.851C303.379 217.227 305.941 216.417 308.025 215.555C310.923 214.357 313.845 213.145 316.425 211.362C318.242 210.107 319.858 208.589 321.467 207.076ZM80.9598 282.184C80.9906 282.502 81.0281 282.838 81.2205 283.092C81.6414 283.649 82.4996 283.513 83.1698 283.317C90.8434 281.074 98.4093 278.464 105.833 275.496C106.368 275.282 106.992 274.944 107.003 274.367C101.308 273.972 95.6131 273.577 89.9183 273.182C88.5254 273.086 87.127 272.988 85.7615 272.697C83.7074 272.258 81.7488 271.378 80.0574 270.133C80.1813 274.16 80.5707 278.174 80.9598 282.184M260.857 243.652C260.398 243.985 260.212 244.57 260.054 245.114C259.512 246.982 258.967 248.964 259.471 250.843C259.727 251.801 260.242 252.665 260.751 253.516C262.159 255.869 263.566 258.221 264.974 260.574C265.105 260.793 265.247 261.023 265.473 261.142C266.145 261.495 266.809 260.665 267.121 259.973C269.146 255.48 271.218 250.729 270.759 245.821C270.688 245.067 270.483 244.21 269.809 243.864C269.499 243.705 269.14 243.685 268.792 243.668C266.705 243.564 264.618 243.461 262.532 243.357C261.954 243.328 261.326 243.314 260.857 243.652ZM292.753 227.018C292.7 230.18 295.459 232.824 298.485 233.745C301.511 234.666 304.758 234.269 307.903 233.932C313.433 233.338 319.282 232.848 323.828 229.644C324.836 228.933 325.79 228.056 326.24 226.907C326.943 225.115 326.236 222.998 324.915 221.598C323.594 220.197 321.762 219.397 319.928 218.81C313.376 216.712 306.101 216.954 299.703 219.482C296.327 220.815 292.814 223.389 292.753 227.018ZM80.4391 259.323C81.0347 259.879 82.242 260.021 82.4743 259.24C83.27 256.565 85.059 254.271 87.1665 252.44C89.2739 250.61 91.7037 249.197 94.1173 247.794C94.7683 247.416 94.7273 246.478 94.6015 245.736C94.3578 244.298 94.1141 242.86 93.8704 241.423C93.8086 241.058 93.6868 240.624 93.3302 240.526C93.0385 240.447 92.7503 240.644 92.5119 240.83C90.7804 242.182 89.0489 243.534 87.3175 244.886C83.8481 247.596 80.13 250.704 79.3777 255.041C79.1155 256.552 79.3178 258.277 80.4391 259.323ZM93.9457 249.644C90.0571 252.073 85.9409 254.761 84.1738 258.992C84.0637 259.255 83.9622 259.532 83.9709 259.817C83.9879 260.38 84.4414 260.854 84.9614 261.07C85.4813 261.287 86.0605 261.296 86.6235 261.303C89.9524 261.342 93.2813 261.381 96.6103 261.421C96.7721 261.423 96.9479 261.42 97.0756 261.321C97.2776 261.163 97.257 260.857 97.2169 260.604C96.6859 257.248 96.1549 253.893 95.6239 250.537C95.5483 250.059 95.3942 249.488 94.9284 249.358C94.5896 249.264 94.2441 249.458 93.9457 249.644ZM259.335 243.859C256.884 243.226 254.241 243.364 251.869 244.248C252.328 245.755 253.142 247.153 254.226 248.297C257.881 252.149 258.961 257.743 259.376 263.037C259.597 265.864 259.675 268.703 259.61 271.538C261.215 269.062 262.82 266.586 264.425 264.11C264.585 263.864 264.749 263.603 264.767 263.31C264.784 263.017 264.651 262.738 264.516 262.477C262.932 259.419 260.605 256.781 259.135 253.666C257.665 250.551 257.215 246.573 259.335 243.859ZM95.1235 114.242C93.7715 114.456 92.2301 114.8 91.588 116.009C91.144 116.844 91.275 117.856 91.4177 118.791C92.0052 122.644 92.5928 126.497 93.1803 130.35C96.187 124.943 99.0024 119.433 101.817 113.924C101.296 113.335 100.373 113.409 99.5963 113.532C98.1054 113.769 96.6144 114.005 95.1235 114.242ZM280.19 245.064C280.606 245.617 281.693 245.005 281.437 244.363C285.453 245.515 289.831 244.695 293.624 242.943C297.417 241.192 300.728 238.567 303.987 235.953C302.619 235.762 301.25 235.57 299.881 235.379C299.602 235.34 299.24 235.345 299.133 235.606C298.396 237.411 296.809 238.762 295.057 239.616C293.305 240.469 291.377 240.882 289.47 241.288C288.148 241.57 286.825 241.852 285.502 242.134C283.453 242.57 281.142 243.199 280.19 245.064M207.542 217.125C207.799 217.06 208.075 216.983 208.239 216.775C208.495 216.451 208.367 215.987 208.3 215.581C208.233 215.174 208.336 214.634 208.742 214.563C209.112 214.637 209.282 215.075 209.291 215.452C209.3 215.829 209.217 216.222 209.354 216.574C209.657 217.357 210.737 217.388 211.57 217.281C212.063 217.219 212.556 217.156 213.048 217.093C213.203 217.073 213.368 217.049 213.482 216.944C213.847 216.61 213.34 216.065 213.227 215.584C213.14 215.212 213.313 214.81 213.2 214.445C213.006 213.824 212.18 213.729 211.529 213.751C206.556 213.916 201.582 214.081 196.609 214.246C196.694 215.187 196.951 216.112 197.365 216.962C197.454 217.145 197.559 217.334 197.735 217.436C197.914 217.539 198.134 217.532 198.34 217.522C199.577 217.465 200.813 217.407 202.049 217.35C202.154 217.345 202.265 217.338 202.353 217.28C202.579 217.131 202.5 216.787 202.397 216.537C202.218 216.107 202.04 215.677 201.861 215.247C201.706 214.873 202.383 214.651 202.668 214.939C202.953 215.227 202.964 215.678 203.098 216.06C203.377 216.853 204.22 217.337 205.055 217.439C205.889 217.541 206.727 217.332 207.542 217.125ZM279.773 243.454C280.044 243.165 279.446 242.864 279.053 242.912C276.813 243.187 274.574 243.461 272.334 243.736C272.035 243.773 271.64 243.937 271.711 244.23C272.447 247.243 272.171 250.495 270.937 253.341C270.702 253.883 270.548 254.711 271.11 254.893C273.446 250.701 276.371 246.838 279.773 243.454ZM203.465 219.398C203.394 219.155 203.315 218.899 203.13 218.727C202.92 218.531 202.616 218.481 202.33 218.449C200.862 218.289 199.367 218.39 197.934 218.746C198.382 220.199 198.83 221.653 199.279 223.106C199.364 223.382 199.478 223.691 199.745 223.799C199.882 223.854 200.035 223.845 200.182 223.835C201.631 223.733 203.08 223.631 204.529 223.53C204.214 222.143 203.859 220.765 203.465 219.398ZM194.032 224.481C194.193 224.569 194.39 224.542 194.571 224.513C195.883 224.299 197.194 224.085 198.506 223.871C198.032 222.354 197.559 220.838 197.086 219.321C197.016 219.098 196.93 218.854 196.725 218.744C196.563 218.656 196.366 218.675 196.183 218.696C195.013 218.832 193.844 218.968 192.674 219.104C192.454 219.129 192.194 219.184 192.113 219.39C192.057 219.53 192.11 219.687 192.162 219.828C192.677 221.218 193.192 222.608 193.707 223.999C193.776 224.185 193.858 224.386 194.032 224.481ZM208.768 218.422C208.491 218.181 208.081 218.197 207.715 218.228C206.559 218.323 205.404 218.418 204.249 218.512C204.595 219.993 205.029 221.452 205.55 222.88C205.618 223.067 205.696 223.264 205.855 223.384C206.053 223.534 206.325 223.526 206.574 223.511C207.362 223.463 208.151 223.416 208.939 223.368C209.303 223.346 209.744 223.269 209.866 222.926C209.924 222.761 209.887 222.58 209.848 222.409C209.608 221.341 209.369 220.273 209.129 219.204C209.065 218.919 208.989 218.614 208.768 218.422ZM201.878 229.056C201.763 229.074 201.641 229.096 201.558 229.176C201.396 229.332 201.47 229.601 201.556 229.809C201.859 230.552 202.163 231.295 202.466 232.037C202.579 232.313 202.705 232.606 202.957 232.765C203.189 232.913 203.481 232.916 203.757 232.914C204.805 232.908 205.853 232.901 206.901 232.895C207.054 232.894 207.221 232.889 207.339 232.791C207.553 232.614 207.473 232.274 207.375 232.014C206.972 230.951 206.568 229.888 206.165 228.825C206.036 228.484 205.561 228.479 205.201 228.535C204.093 228.709 202.985 228.883 201.878 229.056ZM210.696 218.211C210.476 218.212 210.228 218.225 210.079 218.387C209.9 218.584 209.957 218.891 210.025 219.148C210.323 220.275 210.621 221.401 210.919 222.528C210.971 222.726 211.032 222.938 211.191 223.067C211.402 223.239 211.708 223.207 211.977 223.166C212.971 223.014 213.964 222.862 214.958 222.711C214.851 221.558 214.668 220.411 214.41 219.283C214.33 218.93 214.218 218.544 213.912 218.35C213.684 218.205 213.396 218.202 213.125 218.203C212.315 218.206 211.506 218.209 210.696 218.211ZM212.719 232.763C212.397 231.593 212.075 230.424 211.753 229.254C211.63 228.808 211.455 228.302 211.024 228.133C210.811 228.05 210.574 228.069 210.346 228.089C209.286 228.181 208.226 228.273 207.166 228.365C207.445 229.413 207.776 230.446 208.157 231.461C208.349 231.972 208.64 232.551 209.178 232.639C210.347 232.828 211.54 232.869 212.719 232.763ZM214.564 232.682C215.525 232.76 216.58 232.813 217.357 232.242C217.02 230.932 216.684 229.622 216.347 228.312C216.271 228.017 216.169 227.689 215.899 227.549C215.701 227.446 215.463 227.474 215.241 227.505C214.289 227.637 213.336 227.77 212.384 227.902C212.61 229.289 212.995 230.65 213.527 231.95C213.609 232.15 213.701 232.357 213.872 232.488C214.064 232.637 214.322 232.662 214.564 232.682ZM300.211 214.034C300.945 212.528 301.679 211.021 302.413 209.514C302.49 209.356 302.57 209.184 302.542 209.011C302.514 208.841 302.391 208.706 302.273 208.581C301.228 207.477 300.183 206.372 299.138 205.267C298.704 205.86 298.754 206.666 298.823 207.398C299.051 209.8 299.278 212.202 299.506 214.604C299.825 214.675 300.068 214.329 300.211 214.034ZM215.62 218.037C215.483 218.028 215.327 218.025 215.231 218.124C215.124 218.234 215.147 218.413 215.179 218.564C215.386 219.562 215.592 220.559 215.799 221.556C215.876 221.926 215.966 222.321 216.245 222.576C217.148 223.399 218.887 221.983 219.725 222.871C219.873 221.455 219.767 220.012 219.414 218.633C219.389 218.536 219.36 218.434 219.285 218.367C219.199 218.29 219.075 218.278 218.959 218.27C217.846 218.192 216.733 218.115 215.62 218.037ZM194.856 225.434C194.736 225.451 194.611 225.469 194.512 225.539C194.292 225.695 194.301 226.018 194.332 226.285C194.416 226.999 194.509 227.737 194.882 228.351C195.255 228.964 195.992 229.419 196.686 229.233C197.68 228.966 198.674 228.7 199.668 228.433C199.625 227.483 199.432 226.54 199.1 225.649C199.017 225.427 198.913 225.192 198.708 225.072C198.496 224.947 198.231 224.976 197.987 225.01C196.943 225.151 195.9 225.293 194.856 225.434ZM218.04 217.099C218.339 217.053 218.658 216.999 218.88 216.793C219.542 216.182 218.785 214.939 219.322 214.215C219.531 213.932 219.018 213.679 218.667 213.694C217.097 213.76 215.526 213.826 213.956 213.893C214.017 214.542 214.13 215.187 214.294 215.819C214.476 216.522 215.162 217.004 215.872 217.16C216.582 217.316 217.321 217.208 218.04 217.099ZM205.349 225.556C205.147 224.584 203.847 224.357 202.872 224.539C201.896 224.721 200.807 225.073 199.978 224.528C200.031 225.553 200.27 226.569 200.681 227.51C200.768 227.707 200.872 227.914 201.06 228.02C201.272 228.139 201.534 228.101 201.774 228.06C202.735 227.894 203.697 227.728 204.658 227.562C205.134 227.479 205.762 227.102 205.512 226.689C205.312 226.359 205.428 225.933 205.349 225.556ZM199.41 229.543C198.625 229.676 197.839 229.809 197.054 229.942C196.628 230.014 196.104 230.184 196.059 230.614C195.944 231.698 197.024 232.572 198.093 232.788C199.162 233.004 200.272 232.793 201.357 232.9C201.312 231.978 201.119 231.064 200.788 230.203C200.709 229.998 200.615 229.786 200.441 229.652C200.159 229.435 199.761 229.483 199.41 229.543ZM220.112 227.439C219.069 227.328 218.009 227.384 216.984 227.602C217.551 228.952 217.953 230.37 218.18 231.816C218.283 232.478 219.23 232.491 219.88 232.326C220.123 232.264 220.387 232.187 220.526 231.978C220.645 231.799 220.639 231.567 220.629 231.351C220.573 230.161 220.518 228.97 220.462 227.78C220.459 227.704 220.454 227.625 220.41 227.563C220.346 227.472 220.222 227.451 220.112 227.439ZM203.09 238.106C204.073 237.125 203.569 235.144 202.237 234.752C200.905 234.36 199.408 235.752 199.703 237.109C200.008 238.512 202.074 239.12 203.09 238.106ZM210.816 226.605C211.441 225.789 210.505 224.584 209.492 224.407C208.48 224.229 207.453 224.618 206.425 224.602C206.046 224.597 206.031 225.167 206.154 225.525C206.313 225.988 206.472 226.452 206.631 226.915C206.696 227.105 206.814 227.332 207.015 227.32C207.748 227.274 208.481 227.228 209.214 227.182C209.799 227.145 210.459 227.071 210.816 226.605ZM220.949 234.485C220.873 234.28 220.761 234.08 220.585 233.951C220.426 233.836 220.228 233.787 220.034 233.763C218.495 233.578 217.001 235.113 217.229 236.645C217.884 237.424 219.117 237.639 219.996 237.128C220.876 236.617 221.3 235.439 220.949 234.485ZM211.451 225.217C211.418 225.891 212.011 226.467 212.661 226.649C213.311 226.831 214.002 226.713 214.667 226.595C215.007 226.534 215.388 226.446 215.566 226.15C215.946 225.519 215.192 224.36 215.888 224.118C215.421 224.054 214.954 223.99 214.487 223.926C213.87 223.841 213.232 223.758 212.634 223.928C212.035 224.099 211.482 224.595 211.451 225.217ZM217.035 226.08C217.742 226.695 218.927 226.61 219.584 225.942C220.242 225.273 220.328 224.14 219.832 223.344C218.593 223.574 217.355 223.803 216.116 224.033C216.272 224.779 216.46 225.58 217.035 226.08ZM312.743 214.241C311.778 214.599 310.814 214.956 309.849 215.313C309.37 215.491 308.884 215.672 308.469 215.969C310.047 216.585 312.037 215.78 312.743 214.241ZM223.094 137.692C223.069 137.266 222.618 136.918 222.2 137.001C222.227 137.434 222.659 137.799 223.091 137.752L223.094 137.692Z" fill="#00160A"/>
</svg>
