<svg width="233" height="279" viewBox="0 0 233 279" fill="none" xmlns="http://www.w3.org/2000/svg">
<path fill-rule="evenodd" clip-rule="evenodd" d="M294.116 116.023C288.299 118.699 281.569 122.717 280.945 130.03C288.847 122.876 298.608 118.607 308.563 117.951C301.686 128.147 293.002 136.647 283.231 142.749C274.455 148.229 263.346 154.073 262.593 165.73C272.017 152.524 286.507 144.528 301.162 144.449C291.786 160.608 276.753 172.069 260.388 175.534C260.95 180.5 279.094 191.136 284.379 193.182C288.142 212.209 289.773 236.884 293.536 255.911C294.462 260.593 295.278 265.974 292.841 269.833C290.424 273.66 285.859 274.319 281.817 274.657C265.884 275.99 244.085 277.323 228.153 278.656C226.245 268.486 224.337 258.316 222.43 248.146C195.555 251.083 80.3405 282.151 59.1969 265.852C-22.424 202.933 81.6569 181.499 83.8936 104.894C84.4065 87.33 39.5284 56.6259 40.241 38.6779C40.7062 26.9582 42.248 15.5098 47.1755 5.44647C52.103 -4.61686 59.9112 -12.3687 68.3977 -18.2985C56.7138 -21.8326 47.8638 -35.538 48.1006 -49.7313C48.3374 -63.9246 57.6376 -77.2107 69.4304 -80.2025C63.8703 -87.9993 55.1154 -91.573 48.7205 -98.4264C41.2709 -106.41 37.5274 -119.289 40.241 -130.708C42.9546 -142.127 52.5088 -151.111 62.5757 -150.605C70.8447 -150.189 78.1216 -144.034 83.8936 -137.054C92.8453 -126.229 99.5029 -112.796 103.102 -98.2969C105.501 -88.6329 114.294 -83.7165 121.719 -78.7153C129.145 -73.7141 136.856 -65.0025 134.764 -55.2402C131.998 -68.5988 173.106 -52.6871 210.388 -48.792C215.338 -48.2748 220.666 -47.5219 224.325 -43.565C229.583 -37.8788 237.478 -35.8049 244.292 -38.3197C246.46 -31.9953 248.055 -24.8914 246.212 -18.4259C244.369 -11.9604 237.842 -7.02548 232.623 -9.99144C233.985 -1.74508 235.347 6.50128 236.71 14.7476C250.051 14.9363 263.392 15.2569 276.729 15.7093C283.798 15.949 291.187 16.3275 297.33 20.4487C303.474 24.57 311.697 18.7315 317.768 3.73117C313.839 28.2074 318.494 37.9877 326.521 40.6468C326.538 40.4615 327.162 40.5498 327.18 40.3649C329.57 16.1773 343.518 -5.29897 362.929 -13.7949C361.212 -9.14022 348.931 0.0535517 340.402 11.7938C332.072 23.2619 328.084 38.6152 327.671 41.3722C340.899 37.2907 345.309 48.8874 367.75 38.6779C357.496 53.1862 337.734 56.7585 324.252 46.5412C317.891 54.889 318.247 64.1326 313.741 74.0115C321.395 62.817 331.559 72.7417 323.496 79.9973C327.775 80.4811 332.402 81.1446 335.507 84.6447C338.611 88.1448 338.688 95.512 334.684 97.3545C321.161 103.577 307.639 109.8 294.116 116.023Z" fill="#A4FB89"/>
<path fill-rule="evenodd" clip-rule="evenodd" d="M282.976 95.4356C276.813 98.2718 269.682 102.529 269.021 110.278C277.394 102.698 287.737 98.1738 298.285 97.4786C290.998 108.282 281.797 117.29 271.443 123.755C262.145 129.561 250.372 135.754 249.575 148.105C259.561 134.112 274.914 125.64 290.442 125.556C280.508 142.678 264.579 154.823 247.239 158.494C247.834 163.756 267.059 175.025 272.659 177.194C276.647 197.355 278.375 223.501 282.362 243.662C283.344 248.623 284.208 254.324 281.626 258.413C279.065 262.469 274.228 263.167 269.945 263.525C253.063 264.937 229.964 266.35 213.082 267.762C211.061 256.986 209.039 246.21 207.018 235.434C178.541 238.545 56.46 271.466 34.0563 254.195C-52.4293 187.526 57.8549 164.815 60.2249 83.6441C60.7684 65.0329 13.2155 32.4988 13.9705 13.481C14.4635 1.06287 16.0972 -11.0679 21.3184 -21.731C26.5396 -32.3941 34.8131 -40.608 43.8054 -46.8912C31.4252 -50.6359 22.0477 -65.1582 22.2986 -80.1974C22.5495 -95.2366 32.4041 -109.315 44.8997 -112.485C39.0083 -120.746 29.7315 -124.533 22.9554 -131.795C15.0618 -140.254 11.0952 -153.901 13.9705 -166C16.8459 -178.1 26.9696 -187.619 37.6364 -187.083C46.3983 -186.642 54.1089 -180.121 60.2249 -172.725C69.7102 -161.254 76.7645 -147.021 80.5784 -131.658C83.1206 -121.418 92.4371 -116.208 100.305 -110.909C108.173 -105.61 116.344 -96.3788 114.127 -86.0346C111.196 -100.189 154.755 -83.3294 194.259 -79.2021C199.504 -78.6541 205.149 -77.8563 209.026 -73.6636C214.598 -67.6385 222.963 -65.441 230.184 -68.1057C232.481 -61.4043 234.171 -53.877 232.218 -47.0262C230.265 -40.1754 223.348 -34.9463 217.819 -38.089C219.262 -29.3512 220.706 -20.6133 222.149 -11.8755C236.286 -11.6755 250.422 -11.3358 264.554 -10.8565C272.044 -10.6025 279.873 -10.2014 286.383 -5.83456C292.893 -1.46773 301.606 -7.65415 308.038 -23.5485C303.875 2.38649 308.808 12.7498 317.314 15.5673C317.331 15.371 317.992 15.4645 318.012 15.2686C320.544 -10.3606 335.323 -33.1169 355.891 -42.1192C354.072 -37.1871 341.058 -27.4453 332.022 -15.0054C323.195 -2.85375 318.969 13.4146 318.532 16.3359C332.548 12.0112 337.22 24.2991 361 13.481C350.134 28.8541 329.195 32.6393 314.909 21.8131C308.169 30.6584 308.546 40.4529 303.771 50.9206C311.882 39.0589 322.651 49.5751 314.108 57.2632C318.642 57.7758 323.545 58.4788 326.834 62.1876C330.124 65.8963 330.206 73.7025 325.963 75.6548C311.634 82.2484 297.305 88.842 282.976 95.4356Z" stroke="#228005"/>
</svg>
